<svg xmlns="http://www.w3.org/2000/svg" viewBox="0 0 749 395.92"><defs><style>.cls-1,.cls-12{fill:#fff;}.cls-1,.cls-10,.cls-14,.cls-4,.cls-5,.cls-6,.cls-7,.cls-8,.cls-9{fill-rule:evenodd;}.cls-2,.cls-5{fill:#050103;}.cls-3{fill:#212770;}.cls-16,.cls-4{fill:#d1c767;}.cls-6{fill:#4c3b96;}.cls-7{fill:#9184ad;}.cls-8{fill:#4b3887;}.cls-13,.cls-9{fill:#69c6c0;}.cls-10{fill:#3abba7;}.cls-11{fill:#3c2a74;}.cls-14{fill:#5a489c;}.cls-15{fill:#f3cf19;}.cls-17{font-size:34px;font-family:Helvetica-Bold, Helvetica;font-weight:700;letter-spacing:0.03em;}</style></defs><g id="Layer_2" data-name="Layer 2"><g id="Layer_1-2" data-name="Layer 1"><path class="cls-1" d="M19.12,116.28l99.31-97.62a18.29,18.29,0,0,1,25.48,0l99.31,97.62a17.54,17.54,0,0,1,0,25L143.91,239a18.31,18.31,0,0,1-25.48,0L19.12,141.32a17.54,17.54,0,0,1,0-25"/><path class="cls-2" d="M118.7,20.16,19.39,117.78h0A17.18,17.18,0,0,0,14.24,130h0a17.15,17.15,0,0,0,5.14,12.25h0l99.31,97.62h0a17.9,17.9,0,0,0,24.94,0L243,142.3h0a17.21,17.21,0,0,0,0-24.52h0L143.64,20.16a17.9,17.9,0,0,0-24.94,0Zm-99.85,97.1,99.31-97.63h0a18.68,18.68,0,0,1,26,0l99.31,97.63h0a17.92,17.92,0,0,1,0,25.56h0l-99.31,97.63a18.68,18.68,0,0,1-26,0h0L18.85,142.82h0A17.85,17.85,0,0,1,13.48,130h0a17.91,17.91,0,0,1,5.37-12.78Z"/><path class="cls-3" d="M252.59,116.84l2.76-2.72,1.4-6.1,1.56,1.53-1.05,4.07,4.11-1.06,1.53,1.5-6.23,1.37-2.76,2.71Zm-3.41-8.21,1.1-1.09,2.86,2.81-2.61,2.57a5.28,5.28,0,0,1-1.92-.48,6.22,6.22,0,0,1-1.91-1.28,4.89,4.89,0,0,1-1.37-2.19,3.79,3.79,0,0,1,.09-2.35,5.44,5.44,0,0,1,1.36-2.09,5.29,5.29,0,0,1,2.26-1.38,4.12,4.12,0,0,1,2.48,0,4.89,4.89,0,0,1,1.9,1.22,4.44,4.44,0,0,1,1.4,2.39,3.17,3.17,0,0,1-.54,2.26l-1.56-1a1.91,1.91,0,0,0,.24-1.27,2.13,2.13,0,0,0-.68-1.21,2.56,2.56,0,0,0-1.93-.82,3.36,3.36,0,0,0-2.15,1.11,3.49,3.49,0,0,0-1.23,2.23,2.37,2.37,0,0,0,.78,1.91,2.91,2.91,0,0,0,1,.66,3.83,3.83,0,0,0,1.11.32l.83-.82ZM240.8,98.7a3.42,3.42,0,0,0-1.17,2.17,2.27,2.27,0,0,0,.73,1.85,2.38,2.38,0,0,0,1.87.72,3.59,3.59,0,0,0,2.22-1.18,3.51,3.51,0,0,0,1.2-2.15,2.33,2.33,0,0,0-.77-1.83,2.38,2.38,0,0,0-1.88-.75A3.55,3.55,0,0,0,240.8,98.7Zm-1.41-1.29a6,6,0,0,1,2-1.37,4.4,4.4,0,0,1,1.52-.28,3.76,3.76,0,0,1,1.44.25A5,5,0,0,1,246,97.15a4.24,4.24,0,0,1,1.43,3.17,4.8,4.8,0,0,1-1.64,3.32,4.87,4.87,0,0,1-3.35,1.59,4.35,4.35,0,0,1-3.21-1.39,4.3,4.3,0,0,1-1.44-3.17A4.68,4.68,0,0,1,239.39,97.41Zm-8.71-2.13,6.52-6.4,1.32,1.3-5.41,5.32,3.3,3.23-1.11,1.09Zm-2.94-9.34a3.39,3.39,0,0,0-1.17,2.17A2.29,2.29,0,0,0,227.3,90a2.37,2.37,0,0,0,1.87.71,3.54,3.54,0,0,0,2.22-1.18,3.42,3.42,0,0,0,1.19-2.14,2.3,2.3,0,0,0-.76-1.84,2.39,2.39,0,0,0-1.88-.75A3.55,3.55,0,0,0,227.74,85.94Zm-1.41-1.29a6,6,0,0,1,2-1.37,4.87,4.87,0,0,1,1.52-.28,3.68,3.68,0,0,1,1.43.26,5,5,0,0,1,1.68,1.13,4.29,4.29,0,0,1,1.43,3.17,4.78,4.78,0,0,1-1.64,3.32,4.87,4.87,0,0,1-3.35,1.59,4.31,4.31,0,0,1-3.21-1.39,4.23,4.23,0,0,1-1.44-3.17A4.64,4.64,0,0,1,226.33,84.65Zm-9.66-3.17L223.24,75l1.29,1.27-1.7,6.95,4.39-4.31,1.23,1.22-6.57,6.45-1.33-1.31,1.64-6.81-4.29,4.21Zm-6.84-6.64,6.57-6.46,1.33,1.3-2.58,2.55,2.59,2.55,2.59-2.54,1.32,1.3L215.09,80l-1.33-1.3,2.87-2.83L214,73.32l-2.87,2.82ZM209.75,70l.88,1.66a4.21,4.21,0,0,1-2.58.61A4,4,0,0,1,205.78,71a3.87,3.87,0,0,1-1.25-3,4.7,4.7,0,0,1,1.59-3.23,5.16,5.16,0,0,1,3.4-1.67,4.13,4.13,0,0,1,3.14,1.3,3.78,3.78,0,0,1,1.24,2.62,3.5,3.5,0,0,1-.54,1.85l-1.62-1a1.93,1.93,0,0,0,.32-1.27,2,2,0,0,0-.61-1.18,2.16,2.16,0,0,0-1.7-.65A3.71,3.71,0,0,0,207.59,66a3.88,3.88,0,0,0-1.33,2.19,2,2,0,0,0,.64,1.66,1.89,1.89,0,0,0,1.25.57A2.82,2.82,0,0,0,209.75,70Zm-12.86-7.88,6.57-6.46,4.87,4.79-1.11,1.09L203.67,58l-1.45,1.44,3.3,3.24-1.11,1.09-3.29-3.24-1.79,1.75L203,65.9,201.89,67Zm-4.29-4.16,5.46-5.37-1.95-1.92,1.11-1.08,5.22,5.13-1.11,1.09-2-1.91-5.45,5.36Zm-5.79-11.61a2.49,2.49,0,0,0-1.18-.12,1.52,1.52,0,0,0-.85.41,1.27,1.27,0,0,0-.4.92,1.36,1.36,0,0,0,.46.95,2.07,2.07,0,0,0,.68.45,3.52,3.52,0,0,0,1,.2Zm1.85-.86.6.08a1.11,1.11,0,0,0,1-.2.74.74,0,0,0,.23-.58,1,1,0,0,0-.32-.65,1,1,0,0,0-.62-.32A.67.67,0,0,0,189,44a1.26,1.26,0,0,0-.28.83Zm-.14,6.88-1.73.21a5.75,5.75,0,0,1-.32-1.8,4,4,0,0,1-1.38-.31,4.67,4.67,0,0,1-1.24-.88,3.24,3.24,0,0,1-1.15-2.49,2.42,2.42,0,0,1,.74-1.68,2.62,2.62,0,0,1,1.51-.75,4.6,4.6,0,0,1,2,.24,4.6,4.6,0,0,1,.25-1.24,2.3,2.3,0,0,1,.51-.84,1.86,1.86,0,0,1,1.49-.52,2.85,2.85,0,0,1,1.78.93,2.65,2.65,0,0,1,.89,1.73,1.91,1.91,0,0,1-.58,1.52,2,2,0,0,1-1,.51,4.57,4.57,0,0,1-1.77-.15l-.29,2.09a4.52,4.52,0,0,0,1-.47l.88,1.38a8.91,8.91,0,0,1-1.18.57,3,3,0,0,1-.74.2,8.08,8.08,0,0,0,.11,1A6.62,6.62,0,0,0,188.52,52.33ZM177.7,38.47l1.11-1.09,2.86,2.81-2.62,2.57a5.16,5.16,0,0,1-1.92-.49,6,6,0,0,1-1.9-1.27,4.89,4.89,0,0,1-1.37-2.19,3.78,3.78,0,0,1,.08-2.35,5.58,5.58,0,0,1,1.37-2.1A5.33,5.33,0,0,1,177.56,33a4.23,4.23,0,0,1,2.49,0,4.78,4.78,0,0,1,1.89,1.23,4.32,4.32,0,0,1,1.4,2.38,3.15,3.15,0,0,1-.53,2.26l-1.57-1a1.92,1.92,0,0,0,.25-1.27,2.23,2.23,0,0,0-.68-1.21,2.58,2.58,0,0,0-1.93-.82,3.29,3.29,0,0,0-2.15,1.11,3.58,3.58,0,0,0-1.24,2.23,2.4,2.4,0,0,0,.78,1.91,3.11,3.11,0,0,0,1,.66,3.89,3.89,0,0,0,1.12.32l.83-.82Zm-12.16-7.26,6.57-6.45,1.3,1.27L171.71,33l4.39-4.31,1.23,1.22-6.57,6.45L169.43,35l1.63-6.81-4.28,4.21Zm-2.8-2.59,6.57-6.46,1.33,1.3-6.57,6.46Zm-1.53-9,1,1a6.79,6.79,0,0,0,1.28,1.1,1,1,0,0,0,.65.09,1.27,1.27,0,0,0,.62-.35,1.11,1.11,0,0,0,.36-.7,1.08,1.08,0,0,0-.24-.74c-.09-.12-.41-.45-1-1l-1-1ZM156.09,22l6.57-6.45,2.8,2.74A6.65,6.65,0,0,1,166.81,20a2.14,2.14,0,0,1,.13,1.37,2.58,2.58,0,0,1-.75,1.3,2.49,2.49,0,0,1-1.65.77,3,3,0,0,1-1.91-.68,4.35,4.35,0,0,1,.16,1.24,10.23,10.23,0,0,1-.31,1.79l-.48,2-1.59-1.56.48-2.35a14.84,14.84,0,0,0,.26-1.63,1.34,1.34,0,0,0-.13-.66,2.81,2.81,0,0,0-.59-.73l-.27-.26-2.74,2.69Zm-6.24-6.12,6.57-6.46,4.87,4.79-1.11,1.09-3.55-3.48-1.45,1.43,3.29,3.24-1.1,1.09-3.3-3.24-1.79,1.75L156,19.72l-1.11,1.09Zm-7.39-4.79,4.65-7.9,6,3.38-.79,1.34-4.34-2.46-1,1.75,4,2.29-.78,1.33-4-2.29-1.26,2.15,4.49,2.55-.78,1.34Zm-9.3-2.18L135.09,0l1.79.37,2.43,6.75,1.29-6,1.7.36-1.93,8.93-1.84-.39-2.4-6.58-1.26,5.82Zm-4,.29L128.87.09,130.74,0l.32,9.12ZM122.49,7l-.4-1.49,3.9-1L127,8a5.06,5.06,0,0,1-1.39,1.39,6.33,6.33,0,0,1-2.07,1,5.21,5.21,0,0,1-2.62.07,3.88,3.88,0,0,1-2-1.24,5.51,5.51,0,0,1-1.17-2.22,5.13,5.13,0,0,1-.08-2.6,4,4,0,0,1,1.27-2.1,5,5,0,0,1,2-1,4.57,4.57,0,0,1,2.8,0,3.34,3.34,0,0,1,1.73,1.59l-1.71.8a2,2,0,0,0-1-.84,2.28,2.28,0,0,0-1.4,0A2.55,2.55,0,0,0,119.63,4a3.17,3.17,0,0,0-.1,2.38,3.52,3.52,0,0,0,1.35,2.17,2.45,2.45,0,0,0,2.07.29A3.3,3.3,0,0,0,124,8.32a3.93,3.93,0,0,0,.83-.79l-.3-1.12Zm-11.15,9.52L106,9l1.49-1,6.67,2.85-3.55-5,1.43-1,5.32,7.48-1.54,1.06-6.54-2.77,3.47,4.88Zm-6.21,6.41-6.46-6.57,5-4.71,1.1,1.12-3.61,3.42,1.43,1.46,3.36-3.19L107,15.53l-3.35,3.18,1.76,1.79L109.12,17l1.08,1.1Zm-8.16,8-6.45-6.57L95.1,20l1.09,1.11L93,24.18l1.53,1.56,2.79-2.66,1.09,1.12-2.79,2.64,2.74,2.8Zm-9.41,2.67a3.52,3.52,0,0,0,2.19,1.2,2.41,2.41,0,0,0,1.9-.69,2.31,2.31,0,0,0,.76-1.83,3.45,3.45,0,0,0-1.17-2.2,3.48,3.48,0,0,0-2.16-1.21,2.39,2.39,0,0,0-1.88.72,2.27,2.27,0,0,0-.79,1.83A3.37,3.37,0,0,0,87.56,33.59ZM86.22,35a5.91,5.91,0,0,1-1.36-2,4.41,4.41,0,0,1-.26-1.49,3.62,3.62,0,0,1,.29-1.41,4.85,4.85,0,0,1,1.18-1.63,4.41,4.41,0,0,1,3.25-1.34,4.93,4.93,0,0,1,3.35,1.66,4.74,4.74,0,0,1,1.56,3.33,4.24,4.24,0,0,1-1.47,3.13,4.45,4.45,0,0,1-3.25,1.36A4.83,4.83,0,0,1,86.22,35ZM81.05,46.49l-6.46-6.57,5-4.7,1.09,1.11L77,39.75l1.43,1.45L81.82,38l1.09,1.11-3.36,3.18,1.76,1.79L85,40.56l1.09,1.1ZM76.78,50.8l-5.36-5.46-2,1.89-1.1-1.12,5.31-5,1.1,1.11-2,1.88,5.36,5.46ZM62.12,52.3,63.47,51,67,54.58a11.77,11.77,0,0,0,1.13,1.05,1.51,1.51,0,0,0,1,.25,2,2,0,0,0,1.13-.6,1.83,1.83,0,0,0,.64-1.05,1.27,1.27,0,0,0-.21-.9,10.27,10.27,0,0,0-1-1.17l-3.58-3.64,1.35-1.28,3.39,3.46a12.25,12.25,0,0,1,1.54,1.77,2.45,2.45,0,0,1,.4,1.21A2.65,2.65,0,0,1,72.51,55a4.86,4.86,0,0,1-1.09,1.42,5.3,5.3,0,0,1-1.66,1.16,2.92,2.92,0,0,1-1.34.17,2.51,2.51,0,0,1-1.09-.36,11.69,11.69,0,0,1-1.77-1.54Zm2.19,10.75L59,57.59l-2,1.88-1.1-1.11,5.31-5,1.1,1.11-2,1.88,5.36,5.46Zm-4.16,4.14-6.46-6.57L55,59.34l6.46,6.57Zm-4.23,4.15-5.36-5.46-2,1.88-1.09-1.11,5.31-5,1.09,1.11-2,1.88,5.36,5.46ZM45.74,77.08l1.19-1.38a2.14,2.14,0,0,0,1.41.5,2,2,0,0,0,1.28-.62,2,2,0,0,0,.72-1.2,1.14,1.14,0,0,0-.29-.95.84.84,0,0,0-.53-.26,1.46,1.46,0,0,0-.77.17c-.21.1-.66.34-1.36.74a5.16,5.16,0,0,1-2.16.79,2.4,2.4,0,0,1-2.55-2,2.47,2.47,0,0,1,.18-1.45A4.73,4.73,0,0,1,44,70a4,4,0,0,1,2.43-1.26,2.71,2.71,0,0,1,2.09.82l-1.29,1.34a1.59,1.59,0,0,0-1.09-.38A1.87,1.87,0,0,0,45,71.1a2,2,0,0,0-.69,1.11.66.66,0,0,0,.19.61.68.68,0,0,0,.59.21,5.09,5.09,0,0,0,1.67-.74,9.15,9.15,0,0,1,1.92-.91,2.77,2.77,0,0,1,1.4,0,2.88,2.88,0,0,1,1.29.79,2.69,2.69,0,0,1,.72,1.36,2.51,2.51,0,0,1-.19,1.59,5,5,0,0,1-1.21,1.62A4.08,4.08,0,0,1,48.2,78,3.62,3.62,0,0,1,45.74,77.08Zm-4.25,8.43L35,78.94l1.31-1.24,7,1.78L39.09,75.1l1.25-1.19,6.46,6.57-1.36,1.28L38.54,80l4.21,4.28Zm-2.8,2.73-6.45-6.57,1.35-1.28L40,87Zm-7.83,2.55-3.32-1.57,1.5,3.3Zm5,.24-1.47,1.39-2-.94L29.71,94l.91,2-1.43,1.36-3.85-9L26.77,87ZM19.16,96.65,23.43,101l1-1a4.4,4.4,0,0,0,.75-.84,1.64,1.64,0,0,0,.28-.79,1.91,1.91,0,0,0-.27-1,6.11,6.11,0,0,0-1.05-1.33,5.64,5.64,0,0,0-1.28-1,2.28,2.28,0,0,0-1-.27,1.85,1.85,0,0,0-.93.28,9.59,9.59,0,0,0-1.17,1Zm-2.44.17,2.46-2.34a6.43,6.43,0,0,1,1.4-1.08,3.18,3.18,0,0,1,1.6-.36,4.15,4.15,0,0,1,1.68.46,7.05,7.05,0,0,1,1.75,1.35,6.09,6.09,0,0,1,1.17,1.59,4,4,0,0,1,.42,1.84,3.16,3.16,0,0,1-.43,1.42A5.72,5.72,0,0,1,25.71,101l-2.54,2.41Zm3.79,9.28-6.45-6.57,1.35-1.28,6.46,6.57Zm-9.36,2.76a3.52,3.52,0,0,0,2.19,1.19,2.41,2.41,0,0,0,1.9-.69,2.31,2.31,0,0,0,.76-1.83,3.48,3.48,0,0,0-1.17-2.2,3.53,3.53,0,0,0-2.15-1.21,2.4,2.4,0,0,0-1.89.72,2.31,2.31,0,0,0-.79,1.84A3.47,3.47,0,0,0,11.15,108.86Zm-1.34,1.36a5.73,5.73,0,0,1-1.35-2,4.13,4.13,0,0,1-.27-1.48,3.64,3.64,0,0,1,.29-1.42,5,5,0,0,1,1.18-1.62,4.35,4.35,0,0,1,3.25-1.34A4.9,4.9,0,0,1,16.26,104a4.84,4.84,0,0,1,1.57,3.33,4.24,4.24,0,0,1-1.48,3.13,4.37,4.37,0,0,1-3.25,1.36A4.85,4.85,0,0,1,9.81,110.22Zm-3.36,9.61L0,113.26,1.31,112l7,1.79-4.3-4.39,1.26-1.19,6.45,6.57-1.36,1.29-6.9-1.73,4.21,4.29Z"/><path class="cls-2" d="M180.32,64.86C167.36,47.63,149.48,37,129.74,37S92.12,47.63,79.16,64.86,58.1,106.07,58.1,132.49s8.05,50.32,21.06,67.62S110,228,129.74,228s37.62-10.66,50.58-27.89,21.06-41.21,21.06-67.62-8-50.33-21.06-67.63M129.74,35.48c20.24,0,38.56,10.89,51.8,28.5s21.36,41.77,21.36,68.51-8.17,51-21.36,68.51-31.56,28.49-51.8,28.49S91.19,218.6,77.94,201s-21.35-41.76-21.35-68.5,8.16-51,21.35-68.51S109.5,35.48,129.74,35.48Z"/><path class="cls-2" d="M143.94,31a32.38,32.38,0,0,0-24.83,0c-3,1.45-4.86,3.4-4.86,5.5s1.86,4,4.85,5.51a32.34,32.34,0,0,0,24.84,0c3-1.46,4.86-3.41,4.86-5.51s-1.86-4.05-4.86-5.51m-12.42-4a30.8,30.8,0,0,1,13.09,2.63c3.52,1.71,5.7,4.12,5.7,6.84s-2.18,5.13-5.7,6.84a33.75,33.75,0,0,1-26.17,0c-3.53-1.71-5.71-4.12-5.71-6.84s2.18-5.13,5.71-6.84A30.78,30.78,0,0,1,131.52,27.06Zm18,.38c-4.59-2.44-10.94-3.94-18-3.94s-13.39,1.5-18,3.94-7.19,5.58-7.19,9.09,2.74,6.73,7.19,9.09,10.94,4,18,4,13.4-1.51,18-4,7.2-5.58,7.2-9.09S154,29.8,149.5,27.44Zm-18-5.43c7.29,0,13.9,1.57,18.7,4.12s8,6.3,8,10.4-3.05,7.78-8,10.4-11.41,4.13-18.7,4.13-13.9-1.58-18.69-4.13-8-6.3-8-10.4,3-7.77,8-10.4S124.24,22,131.52,22Z"/><path class="cls-4" d="M131.53,27.8c10,0,18,3.9,18,8.73s-8.07,8.73-18,8.73-18-3.91-18-8.73,8.07-8.73,18-8.73m0-5.05c14.32,0,25.93,6.17,25.93,13.78s-11.61,13.78-25.93,13.78S105.6,44.14,105.6,36.53,117.21,22.75,131.53,22.75Z"/><path class="cls-2" d="M144.91,102.29a64.48,64.48,0,0,0-7-1.34l-.48-.06-.14-.46-2-6.54-7.21-.17L126,100l-.16.48-.51,0a63.2,63.2,0,0,0-14.07,2.5l-.46.13-.32-.35-4.66-5.1-6.61,2.87.77,6.48.06.5-.46.24a63.39,63.39,0,0,0-5.61,3.35q-2.73,1.84-5.25,3.93l-.39.33-.45-.24-6-3.17-5.22,4.92,3.26,6.41.21.42-.3.37c-1.23,1.53-2.39,3.11-3.46,4.73s-2.09,3.3-3,5l-.23.43-.5,0-8.22-.57-2.73,6.57L68,145.41l.39.31-.14.47a62.79,62.79,0,0,0-2.48,17.56,63.59,63.59,0,1,0,126.86-6.37,60.8,60.8,0,0,0-1-6.31l-.14-.71.72-.16h0l7.52-5.11-2.06-6.79-9.67-.13h-.48l-.2-.43c-.6-1.32-1.26-2.65-2-4s-1.46-2.6-2.25-3.84l-.25-.41.27-.4,5.05-7.31-4.4-5.61-8.5,3.1-.46.17-.34-.34a63.92,63.92,0,0,0-11.08-8.89L163,110l.06-.46,1-7.71-6.53-3-5,5.39-.34.38-.48-.18a61.31,61.31,0,0,0-6.78-2.11m-6.28-2.75a65.33,65.33,0,0,1,13.11,3.29l5-5.43.38-.4.5.23,7.53,3.46.5.23-.06.53-1,7.79a63.61,63.61,0,0,1,5.51,4,64.65,64.65,0,0,1,5.09,4.54l8.55-3.13.52-.19.34.43,5.08,6.46.34.43-.31.45-5.08,7.36c.72,1.15,1.4,2.33,2,3.52s1.24,2.37,1.81,3.61l9.75.13h.56l.15.52,2.37,7.83.16.52-.45.31-7.81,5.31c.37,1.93.67,3.91.87,5.92A64.62,64.62,0,0,1,175.4,209.6,65,65,0,0,1,66.66,146.25l-6.44-5.2-.43-.34.21-.51,3.15-7.59.21-.5.55,0,8.27.59Q73.5,130.31,75,128c1-1.54,2.11-3,3.25-4.47L75,117.07l-.25-.49.4-.37,6-5.67.4-.37.48.25,6.06,3.18q2.4-2,5-3.7c1.71-1.14,3.47-2.21,5.29-3.19l-.77-6.53-.06-.54.51-.22,7.62-3.31.5-.22.37.4,4.7,5.16a65.45,65.45,0,0,1,13.45-2.39l2.18-6.33.18-.52h.55l8.32.2.55,0,.16.51Z"/><path class="cls-4" d="M138.05,100.21A63.85,63.85,0,0,1,152,103.7l5.38-5.8,7.53,3.47-1,8.24a64.88,64.88,0,0,1,11.21,9l9-3.3,5.08,6.47-5.36,7.76a62.27,62.27,0,0,1,4.26,7.88l10.23.14,2.37,7.83-8.08,5.5-.15,0A64.35,64.35,0,1,1,67.52,146l-6.82-5.5,3.15-7.59,8.77.62a64.27,64.27,0,0,1,6.55-9.87l-3.51-6.9,6-5.66,6.5,3.41a64.6,64.6,0,0,1,11-7.37l-.83-7L106,96.79l5,5.5a63.77,63.77,0,0,1,14.24-2.52L127.58,93l8.31.2Z"/><path class="cls-2" d="M151.69,143.9a34.5,34.5,0,0,0-48.19,0,33.08,33.08,0,0,0,0,47.36,34.5,34.5,0,0,0,48.19,0,33.08,33.08,0,0,0,0-47.36m-24.1-11.31a35.8,35.8,0,0,1,25.17,10.25,34.57,34.57,0,0,1,0,49.47,36,36,0,0,1-50.33,0,34.54,34.54,0,0,1,0-49.47A35.8,35.8,0,0,1,127.59,132.59Z"/><path class="cls-5" d="M127.59,133.35c19.23,0,34.83,15.32,34.83,34.23s-15.6,34.24-34.83,34.24-34.84-15.33-34.84-34.24,15.6-34.23,34.84-34.23"/><path class="cls-1" d="M157.52,151c-7.26.6-14.53,7.75-4.84,17.88.76,1.26.47,2.14-.88,2.62-8,4.15-7.51,7.93-4,11.57,3.49-8.13,9.07-6.94,4.34,1.85a5.24,5.24,0,0,0,6.14-1.28,33.74,33.74,0,0,0,0-32.13Z"/><path class="cls-1" d="M128.59,138c1.3,0,2.35,2.09,2.35,4.67s-1.05,4.67-2.35,4.67-2.34-2.09-2.34-4.67,1-4.67,2.34-4.67m.17-1.16c-6.17,3.92-8.58,9.46-2.75,18.56-3.25,7.84-4.18,14,1.33,15.4,3.92-1.05,6.67-4,3.82-15.89C136.59,145.28,135.35,141.26,128.76,136.87Z"/><path class="cls-5" d="M153.42,161.5c-1.24,1.48-1.7,3.12-1,3.68s2.25-.19,3.48-1.67,1.7-3.11,1-3.67-2.24.19-3.48,1.66"/><path class="cls-1" d="M123.88,188.89c3.3-18.54-20.71-9.12-4.7,3.48-2.91-5.26.45-8.65,4.7-3.48"/><path class="cls-1" d="M96.49,157c2.84.68,4.89,2.64,4.89,4.93,0,2.57-2.56,4.7-5.92,5.11l.25-2.37a3.14,3.14,0,0,0,2.59-2.74,2.94,2.94,0,0,0-2-2.55Z"/><path class="cls-2" d="M51.41,107.28h-9.2v23.09h9.2Zm-9.55-.7H52.12v24.48H41.5V106.58Z"/><path class="cls-2" d="M54.41,94.74H45.2v23.09h9.21ZM44.85,94H55.11v24.48H44.49V94Z"/><rect class="cls-2" x="46.35" y="106.94" width="11.78" height="23.79"/><path class="cls-2" d="M57.74,107.32h-11v23h11Zm-11.39-.76H58.52v24.55H46V106.56Z"/><rect class="cls-2" x="50.1" y="94.39" width="4.68" height="35.59"/><path class="cls-2" d="M54.48,94.69H50.41v35h4.07Zm-4.37-.59h5v36.18H49.8V94.1Z"/><path class="cls-2" d="M47.93,131.36H44V149.8h3.92Zm-4.39-.92h5.33v20.29h-5.8V130.44Z"/><path class="cls-2" d="M48.4,166H43.07V149.8h5.8V166ZM44,165.1h3.92V150.73H44Z"/><path class="cls-2" d="M24.7,117.37l3,3.18,10.92-9.83.24-3.78-3.48.15Zm2.7,3.95-3.5-3.71-.25-.27.26-.25,11-10.63.25-.1,4-.18h.42l0,.41-.27,4.33-.12.25L27.93,121.34l-.27.25Z"/><path class="cls-2" d="M27.68,122.5l-2.35,3.67L37.81,134l3.77-.76-1-3.26Zm-3.19,3.58,2.74-4.28.2-.31.31.18L41,129.41l.17.21,1.22,3.79.13.39-.42.08-4.33.87-.28-.05L24.6,126.59l-.31-.19Z"/><rect class="cls-2" x="51.58" y="106.19" width="6.76" height="60.77"/><path class="cls-5" d="M57.05,116.82C68,108.36,79.14,100.14,97.44,99.36q-2-4.27,1.77-6.66c-19.79-1.79-32.53,6-43.29,16.5q.55,3.81,1.13,7.62"/><polygon class="cls-4" points="199.05 104.39 162.97 69.86 153.12 82.19 194.13 109.95 199.05 104.39"/><path class="cls-2" d="M163.18,69.65l36.08,34.53.21.2-.19.21-4.93,5.55-.17.2-.23-.15-41-27.76-.26-.18.2-.25,9.86-12.32.2-.26Zm35.46,34.76L163,70.31l-9.45,11.81,40.52,27.43Z"/><polygon class="cls-4" points="192.02 111.34 202.05 102.83 208.38 108.56 197.82 115.15 192.02 111.34"/><path class="cls-2" d="M202,104.67l-7.7,6.53,3.52,2.32,8.26-5.16ZM191.1,110.3l10-8.5.94-.8.92.82,6.33,5.73,1.34,1.21-1.54,1-10.56,6.59-.76.48-.76-.5-5.81-3.82-1.52-1Z"/><polygon class="cls-4" points="206.09 110.3 241.29 134.93 231.61 146.22 199.23 114.63 206.09 110.3"/><path class="cls-2" d="M240.85,135l-34.77-24.34-6.37,4,31.88,31.1Zm-34.58-24.94,35.2,24.64.26.19-.21.25-9.68,11.28-.21.24-.23-.23L199,114.84l-.27-.26.32-.19,6.86-4.34.17-.11Z"/><polygon class="cls-2" points="159.81 86.54 169.97 77.09 171.12 78.28 160.96 87.73 159.81 86.54"/><polygon class="cls-2" points="169.39 93.06 178.18 84.63 179.35 85.81 170.56 94.24 169.39 93.06"/><polygon class="cls-2" points="175.42 96.86 183.27 89.08 184.46 90.25 176.61 98.02 175.42 96.86"/><polygon class="cls-2" points="182.11 101.78 188.9 94.79 190.12 95.92 183.32 102.91 182.11 101.78"/><polygon class="cls-2" points="206.44 121.33 213.24 114.34 214.45 115.48 207.66 122.47 206.44 121.33"/><polygon class="cls-2" points="211.43 127.09 219.29 119.31 220.47 120.47 212.62 128.25 211.43 127.09"/><polygon class="cls-2" points="215.94 131.4 224.65 122.91 225.83 124.08 217.12 132.57 215.94 131.4"/><polygon class="cls-2" points="223.85 138.72 233.53 129.27 234.71 130.44 225.03 139.89 223.85 138.72"/><path class="cls-4" d="M57.37,284c.1-4.93,1.43-10.46,1.54-15.39,43.07-31.05,95.25-29.2,140.66-3,5.68,5.84,6.29,11.67,4.6,17.51Q204,286.22,199,287c-41.7-18.94-86.16-23.82-136-.9-2.67.1-4.51-.6-5.53-2.12"/><path class="cls-2" d="M58.51,276.3a70,70,0,0,0-.76,7.54,4,4,0,0,0,1.9,1.43,8.31,8.31,0,0,0,3.16.43c25-11.46,48.6-16,71.2-15.25s44.13,6.67,65,16.14a8,8,0,0,0,3.55-1.27A2.93,2.93,0,0,0,203.8,283v-.09a17,17,0,0,0,.45-8.57,17.81,17.81,0,0,0-4.93-8.54c-23.21-13.38-48.2-20.38-72.83-19.85a118.29,118.29,0,0,0-67.22,22.77,69.77,69.77,0,0,1-.77,7.55M57,284a68.66,68.66,0,0,1,.77-7.75,67.42,67.42,0,0,0,.77-7.65v-.19l.15-.1a119.11,119.11,0,0,1,67.81-23c24.78-.53,49.92,6.52,73.27,20l.08.06a18.55,18.55,0,0,1,5.16,8.94,17.68,17.68,0,0,1-.45,8.89,3.64,3.64,0,0,1-1.53,2.8,8.86,8.86,0,0,1-4,1.43l-.22,0c-20.8-9.45-42.3-15.4-64.81-16.12S88,275,63.06,286.4l-.15,0a9,9,0,0,1-3.53-.48,4.84,4.84,0,0,1-2.33-1.8Z"/><path class="cls-4" d="M71.11,260.67c-5.07-7.89-9.54-9.75-13.68-8.23q-3.75,4.67,4.28,14,4.71-2.89,9.4-5.81"/><path class="cls-2" d="M64.11,252.7c2.32,1.3,4.76,3.77,7.32,7.77l.21.32-.32.2-9.41,5.81-.27.17-.22-.25q-4.06-4.74-5.16-8.33a6.37,6.37,0,0,1,.87-6.18l.17-.12A7.83,7.83,0,0,1,64.11,252.7Zm6.48,7.86c-2.42-3.71-4.7-6-6.85-7.21h0a7.12,7.12,0,0,0-6.08-.6,5.7,5.7,0,0,0-.67,5.43,23.66,23.66,0,0,0,4.8,7.81Z"/><path class="cls-4" d="M191.21,260.45c5.08-7.89,9.55-9.75,13.69-8.23q3.75,4.66-4.28,14l-9.41-5.81"/><path class="cls-2" d="M198.59,253.13c-2.15,1.2-4.43,3.5-6.85,7.21l8.8,5.43a23.66,23.66,0,0,0,4.8-7.81,5.7,5.7,0,0,0-.67-5.43,7.12,7.12,0,0,0-6.08.6Zm-7.69,7.12c2.56-4,5-6.48,7.32-7.77h0a7.83,7.83,0,0,1,6.81-.61l.16.12a6.34,6.34,0,0,1,.88,6.18q-1.09,3.58-5.16,8.33l-.21.25-.28-.18L191,260.76l-.32-.19Z"/><path class="cls-2" d="M185.16,278.8l-2.4-3.74.81-.18c.65,1.19,1.3,2.38,2,3.57l-.37.35m-1.66-14.3c-1.1-.36-2.2-.69-3.3-1v3.6c1.1.33,2.2.66,3.3,1Zm1,.32v9.61l-1-.32V269c-1.1-.37-2.2-.7-3.3-1v1.76l-.15.08-.24,0a.81.81,0,0,1-.45-.36c-.23-.3-.43-.61-.64-.91a6.13,6.13,0,0,1-.57-.95A5.4,5.4,0,0,1,178,267c0-.08.05-.17.07-.26l.19-.13h.1l.18,0,.76.22v-3.6l-2.28-.64v-.83c2.94.84,5.87,1.74,8.82,2.7v.83Zm-8.84-2.63v9.61l-.94-.23v-6.13h-.45l-.57.17-.48.32-.3.33c-.1.14-.2.28-.28.42s-.19.34-.28.52-.1.28-.14.42l-.77-.68v-.24c0-.09.09-.18.14-.27l.34-.51c0-.09.07-.19.11-.28a2.22,2.22,0,0,0-.8-.89l-.62-.42a4.66,4.66,0,0,0-.56-.22,1.2,1.2,0,0,0-1.38.54,1.85,1.85,0,0,0-.32,1.08,4.19,4.19,0,0,0,1.56,3l.62.58.93.7c-.15.24-.31.49-.45.74-.61-.13-1.41-.9-2.44-2.3a5,5,0,0,1-.83-1.48,5.12,5.12,0,0,1-.28-1.47,2.78,2.78,0,0,1,.21-1.11,1.84,1.84,0,0,1,1.4-1.15,2.64,2.64,0,0,1,.5,0,2.5,2.5,0,0,1,.55,0,3.13,3.13,0,0,1,.89.37,3,3,0,0,1,.86.63c.16.17.31.36.48.54a.91.91,0,0,1,.18.31,3.37,3.37,0,0,1,.32-.19l.34-.19.25-.12.41-.06.46,0,.17,0,.23.06V262q-4.27-1.06-8.57-1.92v-.83q5.5,1.14,11,2.57v.83Zm-15.29.44c-.05.11-.08.22-.12.33s-.06.23-.08.35v.26a2.66,2.66,0,0,0,.12.82,2.46,2.46,0,0,0,1,1.3,2.2,2.2,0,0,0,.68.27,1.36,1.36,0,0,0,1-.2l.17-.1a1.5,1.5,0,0,1,.24-.18C162.34,264.52,161.33,263.57,160.34,262.63Zm4.48-2.84v9.6l-.95-.16v-3.08l-.43.4-.46.19a1.15,1.15,0,0,1-.52.1c-.18,0-.35-.07-.53-.09a3.2,3.2,0,0,1-1-.33,3.51,3.51,0,0,1-.87-.73,3.33,3.33,0,0,1-.78-1.61,4.67,4.67,0,0,1-.07-.63,2.61,2.61,0,0,1,.72-1.85,1.91,1.91,0,0,1,1.83-.6l.44.07a1.41,1.41,0,0,1,.45.18l.07.06.16.06c0,.3.09.61.13.91a1.15,1.15,0,0,0-.36-.26c-.16-.07-.32-.11-.48-.17l-.42-.07-.39.07a.77.77,0,0,0-.38.16l-.26.2c1,.92,2,1.87,3,2.81l.14-.42v-5c-1.94-.34-3.87-.64-5.8-.93v-.83q4,.6,8,1.34c0,.28,0,.56,0,.84C165.68,260,165.25,259.86,164.82,259.79Zm-19.44-5.51V253l1.24.1v1.31Zm-.32,3.08c-1.1-.08-2.2-.13-3.3-.2v3.6l3.3.19Zm1,.06V267l-1-.07v-5.1l-3.3-.19v1.76l-.15.12-.24,0a.67.67,0,0,1-.46-.24c-.22-.25-.42-.5-.63-.75a4.15,4.15,0,0,1-.57-.82,4.72,4.72,0,0,1-.18-.53,2.68,2.68,0,0,1,.07-.27l.18-.18.11,0,.18-.05.76,0v-3.59l-2.28-.09v-.83c2.94.12,5.87.28,8.81.49v.83Zm-8.62-.43v2.66a1.82,1.82,0,0,1-.61,1.45,3.15,3.15,0,0,1-.29.22,2.7,2.7,0,0,1-.34.17,2,2,0,0,1-.72.08h-.34l-.32-.11c.43.7.86,1.41,1.3,2.11l.5.72.66.81.28.37.4.45-.68.67a4.59,4.59,0,0,1-1-1.11c-.61-.82-1.18-1.71-1.75-2.65l-.55-.94-.72-1.34c-.06-.12-.11-.25-.17-.37s-.26-.48-.38-.73l.75-.6c.24.47.48.95.73,1.42a1.42,1.42,0,0,0,2,.23,2.25,2.25,0,0,0,.24-.44l.09-.54V257c-1.66,0-3.32-.06-5-.08v-.82c2.45,0,4.92.07,7.38.14V257Zm-7.78-.09c-1.17,0-2.35,0-3.52.05v3.88a1.82,1.82,0,0,0,.54,1.42,1.87,1.87,0,0,0,.48.33,3.1,3.1,0,0,0,.53.1,1.27,1.27,0,0,0,.74-.17,2.67,2.67,0,0,0,.71-.53l.23-.28.29-.43Zm1,0v9.61h-1v-4c-.11.1-.22.21-.31.31l-.23.18a2.28,2.28,0,0,1-1.39.5,2.41,2.41,0,0,1-2.34-1.67,2.79,2.79,0,0,1-.17-1.1V257l-1.41,0v-.83c2.76-.07,5.54-.1,8.31-.1v.83Zm-19.49-2.18v-1.32l1.23-.11v1.31C111.91,254.63,111.5,254.66,111.1,254.71Zm.34,3.06v9.61l-.94.09v-6.14l-.27.11-.2.08-.55.37c-.16.17-.33.34-.5.5s-.19.29-.29.44-.19.34-.28.52-.18.41-.27.61-.11.33-.16.48l-.75-.42v-.24c0-.1.08-.21.13-.31s.22-.42.34-.63.08-.21.12-.32a1.42,1.42,0,0,0-.81-.62l-.62-.2a5.21,5.21,0,0,0-.55,0,1.74,1.74,0,0,0-1.38,1,2.4,2.4,0,0,0-.32,1.2,2.74,2.74,0,0,0,1.55,2.42l.61.37,1,.37q-.24.45-.45.9c-.62.08-1.43-.4-2.45-1.44a3.47,3.47,0,0,1-.83-1.2,4.28,4.28,0,0,1-.27-1.38,3.37,3.37,0,0,1,.2-1.19,3,3,0,0,1,1.41-1.62,3.83,3.83,0,0,1,.49-.2,2.78,2.78,0,0,1,.55-.14,2.85,2.85,0,0,1,.9,0,2.11,2.11,0,0,1,.84.35l.5.37a.54.54,0,0,1,.16.25c.1-.1.21-.21.32-.3l.34-.31.27-.21.39-.21.47-.2.17,0,.24,0v-2.67q-4.29.47-8.57,1.08v-.83q5.5-.78,11-1.31v.83Zm-10.86,1.37v9.62l-1,.15V259.3l-1.74.3v-.83c1.49-.26,3-.5,4.46-.73v.83Zm-4.32,1.52a1.15,1.15,0,0,0-1.22-.54,1.33,1.33,0,0,0-.85.54,3.29,3.29,0,0,0-.23.46,2.64,2.64,0,0,0-.08.49,1,1,0,0,0,.34.86,3.57,3.57,0,0,0,.38.25,2.92,2.92,0,0,0,.51,0,1.74,1.74,0,0,0,1.11-.75,2.8,2.8,0,0,0,.14-.25c.07-.11.13-.23.2-.35Zm.44-.87c.14.17.28.32.41.49a1.58,1.58,0,0,1,.25.56c.06.2.11.41.18.61s.06.43.07.65a4.49,4.49,0,0,1-1,2.74,3.79,3.79,0,0,1-2.35,1.59l3,2.23-.63.81q-2.17-1.64-4.34-3.23c.21-.29.41-.57.63-.85.21.15.42.31.64.45l.11,0,.54-.12.43-.19a1.56,1.56,0,0,0,.57-.37c.18-.18.38-.35.58-.53l.45-.59c.09-.2.18-.4.28-.6s0-.28.07-.42a5.85,5.85,0,0,1,0-.59,2.79,2.79,0,0,0-.28.32,2.13,2.13,0,0,0-.21.22,2.49,2.49,0,0,1-.6.48,3.34,3.34,0,0,1-.57.22,1.82,1.82,0,0,1-.84,0,1.58,1.58,0,0,1-1.13-.93,1.82,1.82,0,0,1-.14-.8,2.79,2.79,0,0,1,.51-1.43l-2.06.43v-.81q3.32-.72,6.65-1.33v.81ZM88,260.87c-1.2-.59-2.38-1.17-3.57-1.73l.68-1c1.11.86,2.22,1.75,3.33,2.65Zm1.55-.38-3.1-3.8.83-.74c.47.74,1,1.47,1.44,2.2s1,1.46,1.45,2.2Zm.37.75v9.61l-1,.23v-9.61l-1.75.43v-.83c1.49-.37,3-.72,4.48-1.06v.83Zm-7.6,2v3l.34-.46a2.56,2.56,0,0,1,.2-.26l.43-.4a2.73,2.73,0,0,1,.42-.3l.22-.07.21-.05a1.83,1.83,0,0,1,1.78.27,2.08,2.08,0,0,1,.68,1.67,5.49,5.49,0,0,1-.94,2.7c-.13.22-.26.44-.38.66s-.38.54-.55.81l-.8-.47a.63.63,0,0,0,.3-.31c.19-.3.37-.63.56-.94a4.74,4.74,0,0,0,.83-2.31,1.56,1.56,0,0,0-.32-1.09,1,1,0,0,0-.47-.25,1.27,1.27,0,0,0-.6,0,2.46,2.46,0,0,0-1.38,1.27,3.5,3.5,0,0,0-.53,1.72v4.33l-.94.28v-3a3.2,3.2,0,0,1-1.68,1.26,1.78,1.78,0,0,1-2.41-.9,2.39,2.39,0,0,1-.21-1,3.73,3.73,0,0,1,.21-1.23,4,4,0,0,1,1.35-1.84,3.06,3.06,0,0,1,.95-.51c.16,0,.33-.06.49-.09h.49v.87h-.19l-.08-.05-.15,0H80l-.15,0-.12,0A1.91,1.91,0,0,0,79,267a2.77,2.77,0,0,0-.83,1.39,4.1,4.1,0,0,0-.1.48v.32c0,.89.29,1.4.91,1.48a1.66,1.66,0,0,0,.64-.05,2.2,2.2,0,0,0,1.08-.8,2.47,2.47,0,0,0,.62-1.27c.06-.84,0-1.68,0-2.52v-2.52c-1.83.55-3.67,1.15-5.5,1.75v-.83q5.82-1.9,11.65-3.44v.83C85.77,262.26,84,262.74,82.3,263.23Z"/><path class="cls-2" d="M183.24,275.26l1.27,2-.23-.42-.87-1.59Zm1.67,3.7-.26-.41c-.69-1.08-1.39-2.15-2.14-3.33l-.22-.35.41-.1.21,0,.6-.13.22,0,.1.2,1,1.79,1,1.78.11.2-.16.15-.37.35-.26.26Zm-3-15.26c.55.16,1.1.34,1.66.52l.21.07v4.23l-.4-.13-1.65-.53-1.64-.5-.22-.06v-4.22l.39.12Zm1.26,1-1.44-.46-1.25-.38v3l1.43.44,1.26.39Zm-5.75-2.55v.21l.42.12,1.48.42.22.06v4.21l-.39-.11-.38-.11h0l-.32-.09h-.15l0,0,0,.08,0,.1h0a2.89,2.89,0,0,0,.11.35,3.25,3.25,0,0,0,.25.45q.14.23.3.45h0l.13.19c.16.23.32.47.5.71h0a1.52,1.52,0,0,0,.17.18.17.17,0,0,0,.11.06h0v-1.92l.39.12.26.08c1,.3,2,.61,3,.94l.21.07v5.1l.36.12v-9.61l.4.13.94.31v-.2c-1.39-.46-2.79-.9-4.2-1.33S178.73,262.54,177.45,262.17ZM175.33,267v-5.2l.38.11,1,.27V262q-2.55-.66-5.13-1.26c-1.73-.4-3.45-.78-5.14-1.14v.23c1.36.27,2.72.56,4.05.86s2.87.66,4.3,1l.23.06V265l-.38-.09-.23-.06h0l-.13,0-.4,0-.2,0-.15,0-.21.09-.16.09-.16.09-.16.09h0l-.15.1-.32.19-.13-.35a.61.61,0,0,0-.05-.12h0l-.06-.08c-.12-.13-.23-.26-.35-.38l-.14-.17a2,2,0,0,0-.35-.3h0a5.08,5.08,0,0,0-.43-.27l-.38-.19a1.81,1.81,0,0,0-.43-.14l-.24,0h-.49l-.19,0h0a1.59,1.59,0,0,0-1.18,1,2.06,2.06,0,0,0-.14.46,2.92,2.92,0,0,0,0,.54,3.42,3.42,0,0,0,.07.61c0,.21.1.47.19.78h0a3.42,3.42,0,0,0,.31.68h0c.14.24.31.48.48.72a12.92,12.92,0,0,0,1.35,1.58,2.74,2.74,0,0,0,.71.53l.19-.31-.72-.54,0,0-.45-.41-.17-.17a6.24,6.24,0,0,1-1.23-1.55,3.48,3.48,0,0,1-.42-1.64,2.44,2.44,0,0,1,.09-.66,1.88,1.88,0,0,1,.28-.59,1.6,1.6,0,0,1,.75-.62,1.56,1.56,0,0,1,1,0h0a2.61,2.61,0,0,1,.42.16l.19.08.05,0,.31.21.3.21h0a3,3,0,0,1,.56.48,1.84,1.84,0,0,1,.35.54l.05.12-.06.12-.08.2,0,.05,0,.06-.17.26-.16.25a1,1,0,0,0-.1.18v0l.33.29h0v0l.14-.26h0l.14-.26v0l.23-.34h0l.07-.09,0,0,.29-.33,0-.05.36-.24.14-.09.08,0,.56-.17H175v6.2l.33.08Zm-14.85-3.83v0l0,.13v.23a2.34,2.34,0,0,0,0,.38h0a1.55,1.55,0,0,0,.08.36,2,2,0,0,0,.13.31,2.7,2.7,0,0,0,.2.31h0a1.67,1.67,0,0,0,.25.28,1.34,1.34,0,0,0,.29.23h0a1.69,1.69,0,0,0,.27.13h0a2,2,0,0,0,.32.1h0a1,1,0,0,0,.35,0h0a1.39,1.39,0,0,0,.41-.16h0l.07,0h0l-1.25-1.19Zm4,1.42v-5.15l.35.06c.33.05.63.11.92.17v-.22c-1.25-.23-2.52-.45-3.79-.66s-2.38-.39-3.62-.58v.23l2.64.4c1,.16,2,.32,2.91.49l.25,0v5.23l0,.08-.1.35h0l0,.08-.14.46-.36-.34-.11-.1-.57-.54.71.67.26.25-.3.2-.12.09-.11.09h0l0,0-.14.09h0a2,2,0,0,1-.58.22,1.51,1.51,0,0,1-.6,0h0a2.58,2.58,0,0,1-.42-.13,1.64,1.64,0,0,1-.35-.18h0a2.25,2.25,0,0,1-.39-.3c-.11-.11-.22-.23-.32-.35a4.25,4.25,0,0,1-.25-.39,1.9,1.9,0,0,1-.18-.42h0a3,3,0,0,1-.1-.45,3.28,3.28,0,0,1,0-.46v-.32l0-.18h0l.05-.18h0c0-.11.07-.23.13-.36l.16-.41.06.06.27-.2.07-.05h0l.17-.13h0a.72.72,0,0,1,.24-.14h0a1.07,1.07,0,0,1,.27-.07l.28-.05.11,0h.11l.43.07h0l.17.06.18.06,0-.11,0,0a.29.29,0,0,1-.1-.06h0l-.15-.08-.17-.05h0l-.17,0-.26,0h0a1.79,1.79,0,0,0-.87,0,1.48,1.48,0,0,0-.69.46,2.52,2.52,0,0,0-.49.77,2.27,2.27,0,0,0-.14.87,2.64,2.64,0,0,0,0,.29,1.77,1.77,0,0,0,0,.3h0a2.81,2.81,0,0,0,.24.76h0a4.08,4.08,0,0,0,.47.7,4.8,4.8,0,0,0,.4.39,2.28,2.28,0,0,0,.39.27,2.54,2.54,0,0,0,.41.18h0a2.4,2.4,0,0,0,.48.11l.21,0h0a1.6,1.6,0,0,0,.29.05.66.66,0,0,0,.2,0l.17-.06.35-.15.07,0,.34-.31h0l0,0,.51-.46V269l.35.06Zm.6-4.44v9.6l-.35-.06-1-.17-.25,0v-2.66h0l-.12.05h0l-.33.14h0l-.29.1a1.45,1.45,0,0,1-.37,0,1.59,1.59,0,0,1-.38-.06l-.18,0h0a3.39,3.39,0,0,1-.57-.14h0a3.53,3.53,0,0,1-.52-.22h0a4.71,4.71,0,0,1-.48-.34h0a3.38,3.38,0,0,1-.47-.46h0a3.52,3.52,0,0,1-.55-.83h0a3.19,3.19,0,0,1-.29-.92h0c0-.11,0-.22,0-.34s0-.23,0-.34a2.81,2.81,0,0,1,.19-1.09,3,3,0,0,1,.6-1h0a2.1,2.1,0,0,1,.95-.62,2.48,2.48,0,0,1,1.16-.08h0l.25.05h0l.18,0a1.15,1.15,0,0,1,.29.08h0l.27.14h0l0,0h0l.13.06.15.07,0,.16.14.91-.52.25a.63.63,0,0,0-.12-.11h0l-.14-.08h0l-.28-.1h0l-.15-.05-.35-.06h-.06l-.28.05h0l-.14,0-.09.05c.79.73,1.58,1.48,2.37,2.22v-4.58c-.9-.16-1.78-.3-2.64-.44L158,259l-.26,0v-1.44l.35.06c1.29.19,2.61.4,4,.63h0l3.72.65h0l.35.08.21,0h0q2.69.56,5.33,1.17h0q2.48.57,5,1.22h0l.39.11.14,0h0l.22.06h0c1.35.38,2.7.78,4,1.19s2.93.91,4.42,1.4l.2.07v1.45l-.39-.13-.95-.31v9.61l-.39-.13-1-.32-.21-.07v-5.09c-.89-.29-1.79-.57-2.69-.84v1.55l-.18.08h0l-.07,0-.11.08-.14,0h-.1l-.14,0h0a1,1,0,0,1-.35-.17h0a1.37,1.37,0,0,1-.28-.3h0l-.51-.73-.13-.19-.32-.48a5.05,5.05,0,0,1-.28-.51h0a3,3,0,0,1-.14-.43h0l0-.18v-.15l.07-.26.11-.17.06,0h0l.15-.1.08,0h0l.12,0h.28l.38.1v-3l-1.27-.35-.25-.07h0l-.38-.1-1.14-.32v9.6l-.37-.09-.94-.24-.23-.06v-6h-.1l-.48.15-.11.07h0l-.31.2-.26.29-.06.08h0l-.2.31-.14.25-.12.23-.07.19h0l-.06.21-.14.44-.35-.3-.77-.68h0l-.09-.21v-.24l0-.13,0,0h0a.94.94,0,0,1,.13-.24h0l.16-.25h0l.15-.23h0l0-.12a1.15,1.15,0,0,0-.19-.26A2.53,2.53,0,0,0,171,265l-.3-.21-.3-.2-.15-.07h0a2.15,2.15,0,0,0-.32-.13,1,1,0,0,0-.59,0,1,1,0,0,0-.47.4h0a1.4,1.4,0,0,0-.2.43,1.57,1.57,0,0,0-.07.49,2.89,2.89,0,0,0,.36,1.37,5.67,5.67,0,0,0,1.11,1.4l.17.16.43.4.86.64.06,0,.22.16-.14.23-.12.19h0l-.33.55-.11.19-.22,0a2.77,2.77,0,0,1-1.2-.75,13.36,13.36,0,0,1-1.42-1.66c-.18-.26-.36-.51-.51-.77h0a3.79,3.79,0,0,1-.36-.8c-.1-.32-.17-.6-.22-.84a4.72,4.72,0,0,1-.07-.72,4.26,4.26,0,0,1,.05-.64,2.83,2.83,0,0,1,.18-.58,2.23,2.23,0,0,1,.64-.88,2.27,2.27,0,0,1,1-.45h0l.27,0h.59l.3.05a2.63,2.63,0,0,1,.54.18h0a3.61,3.61,0,0,1,.44.22h0a3.26,3.26,0,0,1,.48.3h0a2.11,2.11,0,0,1,.45.39h0l.15.17.34.37h0l.07.09.05,0h0l.16-.1h0l.17-.09h0l.25-.12.08,0,.2,0h0l.21,0h0l.46,0h.12v-2.06c-1.35-.33-2.7-.65-4-.95s-2.75-.6-4.11-.88l-.17,0-.32-.06Zm-19.44-6.86V254l.64.05v-.72Zm-.6,1v-1.64l.32,0,1.25.09.28,0v1.91l-.33,0-1.24-.09-.28,0Zm-2.25,2.65,2.25.13.29,0v4.19l-.33,0-2.37-.14-.92-.05-.29,0v-4.19l.32,0Zm1.93.7-2-.11-.73,0v3l.63,0c.69,0,1.38.07,2.06.12Zm-5.61-1.11v.24l.84,0,.85,0h.29V261h-.31l-.71,0-.13,0,0,0,0,0,0,0,0,.12,0,.08h0a1.6,1.6,0,0,0,.11.33h0a4.51,4.51,0,0,0,.52.74h0l.09.11c.18.21.35.42.54.63a.53.53,0,0,0,.15.12l.08,0h.09v-1.91l.32,0H142c1,.06,2,.11,3,.18h.29v5.11l.36,0v-9.6l.32,0,1,.07V257l-4.12-.27Zm-5,5.22h0m-6.33-5.13,1.76,0h.31v4.67l-.06.17-.29.42,0,0-.23.28h0a2.22,2.22,0,0,1-.35.32,4.22,4.22,0,0,1-.44.28h0a1.92,1.92,0,0,1-.44.17,1.83,1.83,0,0,1-.47,0,2.5,2.5,0,0,1-.41-.07l-.16,0-.07,0a2.18,2.18,0,0,1-.34-.2l-.21-.18a1.94,1.94,0,0,1-.48-.7,2.46,2.46,0,0,1-.17-.94v-4.17h.3Zm1.46.58h-1.46l-1.46,0v3.6a2,2,0,0,0,.12.73,1.25,1.25,0,0,0,.33.47h0l.16.14a1.3,1.3,0,0,0,.21.12l.13,0h0a1.77,1.77,0,0,0,.32.05h0a.93.93,0,0,0,.29,0h0a.92.92,0,0,0,.29-.11,2.6,2.6,0,0,0,.37-.23,1.79,1.79,0,0,0,.24-.23l.23-.27.23-.34Zm3.06-.83v.24l1.57,0h0l2.49,0h.29v2.88l0,.14h0l-.06.39,0,.09c0,.12-.1.21-.14.29h0l-.14.21a1.13,1.13,0,0,1-.51.33,2.26,2.26,0,0,1-.67.09h0a1.78,1.78,0,0,1-.77-.18,1.14,1.14,0,0,1-.53-.51c-.22-.39-.4-.74-.58-1.1l-.26.22.07.15.2.36v0l.16.37.72,1.32.27.46.27.47h0c.28.47.56.93.85,1.36s.57.86.88,1.27h0c.22.29.41.53.57.71h0l.18.18.14-.15h0l.14-.14,0,0h0l-.2-.23h0l-.14-.19h0l-.12-.17-.33-.4h0l-.33-.4v0l-.26-.36h0l-.25-.36h0l-.65-1.06h0l-.65-1.06.37-.43.24.08h.63a1.59,1.59,0,0,0,.3-.06l.16-.08h0l.11-.06.05,0h0l.2-.15h0a1.55,1.55,0,0,0,.37-.52,2,2,0,0,0,.13-.71v-3h.31l.83,0v-.23l-3.1-.08Zm-.61,0h0v.23h0Zm-1.49,5.33v-5.11h.88v-.23l-3.24,0-3.84.07v.24l1.1,0h.31v4a4.43,4.43,0,0,0,0,.52h0a1.55,1.55,0,0,0,.12.47h0a2.53,2.53,0,0,0,.84,1.13,2,2,0,0,0,1.21.35h0a1.84,1.84,0,0,0,.62-.11,2,2,0,0,0,.58-.32l.21-.17.14-.14h0l.17-.16.51-.48v4.42h.35Zm.6-4.51v9.61h-1.56v-3.65l-.05,0h0a2.39,2.39,0,0,1-.74.42,2.9,2.9,0,0,1-.83.15h0a2.7,2.7,0,0,1-1.58-.47,3.17,3.17,0,0,1-1-1.39h0a2.27,2.27,0,0,1-.16-.62,5.83,5.83,0,0,1,0-.59v-3.43l-1.1,0h-.31v-1.42h.3c1.37,0,2.76-.06,4.15-.07l3.24,0h1.22l2.77,0,3.09.08h.9l3.82.19c1.48.08,3,.18,4.41.29l.28,0v1.42l-.32,0-1-.08v9.61l-.32,0-1-.07-.28,0v-5.1l-2.69-.15v1.6l-.14.09h0l-.11.07-.16.08h-.11l-.17,0a.71.71,0,0,1-.37-.1,1.62,1.62,0,0,1-.31-.24h0c-.19-.21-.38-.43-.56-.65l-.09-.11h0a4.36,4.36,0,0,1-.59-.86h0a2.35,2.35,0,0,1-.15-.42l0-.15v-.16l.06-.27.08-.14.09-.09h0l.1-.1.1-.06.11,0h0l.18-.06h.1l.45,0v-3l-.57,0-1.42-.05-.29,0h-.54v2.35a2.52,2.52,0,0,1-.17.93,2.15,2.15,0,0,1-.53.74h0l-.26.2-.06,0h0l-.12.07h0a1.26,1.26,0,0,1-.26.13h0a1.74,1.74,0,0,1-.43.09h-.44l.3.49.66,1.06.23.34h0l.25.36.32.39h0l.33.4v0l.13.17.14.19.19.21.2.23.19.21-.2.19-.35.34-.33.33-.16.16-.2-.11a2,2,0,0,1-.5-.44h0a7.55,7.55,0,0,1-.62-.76h0c-.31-.41-.61-.85-.9-1.3s-.59-.91-.87-1.38h0l-.27-.46h0l-.27-.47h0l-.73-1.34v0l-.16-.35-.19-.36h0l-.19-.36-.11-.22.19-.14.47-.39h0l.28-.22.29-.24.17.34.1.2h0c.21.42.43.85.63,1.21a.59.59,0,0,0,.27.27,1.24,1.24,0,0,0,.51.11,1.53,1.53,0,0,0,.47-.06.48.48,0,0,0,.23-.14h0a1.18,1.18,0,0,0,.08-.12h0l.1-.21.06-.38h0l0-.11v-2.23l-2.19,0-2.21,0Zm-19.49-3.53v.72l.63-.06v-.72H112Zm-.61,1.05v-1.58l.28,0,.83-.08h0l.4,0,.33,0v1.91l-.27,0-.27,0-1,.09-.34,0Zm-2.45,9.59h0m0,0h0m-5.69-6v.23c1.16-.17,2.33-.32,3.53-.47l4.29-.51.34,0v3.28l-.28,0-.24,0h-.12l-.42.17-.35.19-.25.2-.29.26,0,0h0l-.15.14-.16.16-.33.32-.17-.43,0-.09,0,0h0l-.25-.18h0l-.25-.19a2,2,0,0,0-.32-.18h0a2.34,2.34,0,0,0-.4-.11,2,2,0,0,0-.37-.06,3.1,3.1,0,0,0-.42,0h0l-.24,0h0a1.21,1.21,0,0,0-.25.08h0l-.23.09-.2.09a2.85,2.85,0,0,0-.78.62,2.81,2.81,0,0,0-.49.84h0a2.83,2.83,0,0,0-.14.52,3.45,3.45,0,0,0,0,.57,3,3,0,0,0,.06.59,5.47,5.47,0,0,0,.2.69,2.08,2.08,0,0,0,.29.55,3.87,3.87,0,0,0,.46.54h0a6.61,6.61,0,0,0,1.32,1.08,1.54,1.54,0,0,0,.72.27l.15-.29h0l.08-.16-.64-.25,0,0-.62-.36a3.75,3.75,0,0,1-1.26-1.16,2.78,2.78,0,0,1-.44-1.52,2.72,2.72,0,0,1,.09-.69,2.8,2.8,0,0,1,.27-.65,2.49,2.49,0,0,1,.69-.83,1.77,1.77,0,0,1,.94-.35h0a2,2,0,0,1,.42,0h.17l.07,0,.2.06.43.14h0a2.11,2.11,0,0,1,.6.31,1.35,1.35,0,0,1,.38.45l.06.11-.05.13,0,.1h0a1.18,1.18,0,0,0-.07.2l0,.05-.17.31h0l-.16.3-.1.25h0l.28.16,0-.14v0l0-.13c.07-.16.14-.32.23-.5h0l.07-.13c.07-.13.14-.27.22-.4v0l.29-.43,0-.05.49-.49,0,0,.27-.19h0l.28-.18.06,0,.19-.08.13-.05h0l.14-.05.42-.16v6.24h.06l.27,0V257.5l.27,0,1.23-.11v-.23c-1.7.17-3.43.35-5.17.56S104.26,258.09,102.65,258.31Zm-6.83,1.6a1.72,1.72,0,0,1,.68.57l0,.06.3.71.06.13-.08.13-.2.35h0l-.05.1a.82.82,0,0,1-.11.17h0a2.38,2.38,0,0,1-.61.58,1.64,1.64,0,0,1-.7.29,2.71,2.71,0,0,1-.4,0h-.16l-.14,0-.11-.06a2,2,0,0,1-.31-.2h0a1.33,1.33,0,0,1-.35-.49,1.51,1.51,0,0,1-.09-.61,1.85,1.85,0,0,1,.06-.42l0-.12,0-.07.06-.15h0a1.7,1.7,0,0,1,.19-.35h0a1.53,1.53,0,0,1,.45-.43h0a1.44,1.44,0,0,1,.58-.23h0A1.4,1.4,0,0,1,95.82,259.91Zm.18.9a1.35,1.35,0,0,0-.42-.36.78.78,0,0,0-.48,0h0a1,1,0,0,0-.38.15.89.89,0,0,0-.28.27,1.07,1.07,0,0,0-.12.24h0l-.07.14,0,.09h0a1.67,1.67,0,0,0,0,.31h0a.92.92,0,0,0,0,.38.64.64,0,0,0,.18.25,1.28,1.28,0,0,0,.23.14h0l0,0h.37a1.15,1.15,0,0,0,.45-.18,2.25,2.25,0,0,0,.47-.46.73.73,0,0,0,0-.09h0l0-.11h0l.13-.23ZM98.3,259v.23l1.27-.22.36-.07v9.62l.35-.06v-9.61l.26,0,1.08-.17v-.23l-1.46.24Zm-12,.73.83.41-.59-.48-1.41-1.11-.31.47,1.47.71Zm.52-3,2.8,3.44h0l-.49-.75-.73-1.1h0c-.25-.39-.45-.7-.66-1l-.59-.89-.14.13h0ZM92,260.25v.21l1.38-.29L94,260l-.36.58a5.12,5.12,0,0,0-.35.71,1.84,1.84,0,0,0-.11.57h0a1.52,1.52,0,0,0,.11.66h0a1.45,1.45,0,0,0,.39.52,1.27,1.27,0,0,0,.54.25h0l.35.06a1.31,1.31,0,0,0,.34,0h0l.26-.08.25-.11a2,2,0,0,0,.26-.18h0l.25-.24.06-.07.15-.15.13-.15h0l.15-.16.52.24c0,.15,0,.32,0,.49v.1l-.06.43,0,.09-.14.28-.13.3,0,.06-.1.13h0l-.34.45,0,.05-.18.16a4.61,4.61,0,0,0-.39.36,2.51,2.51,0,0,1-.32.25h0a2,2,0,0,1-.36.19l-.27.11h0l-.13.07h-.06l-.23.06h0l-.31.07h0l-.11,0-.13,0-.1-.07L93,265.8l-.14.19h0l-.14.19,1.93,1.43h0l1.93,1.44.27-.33-1.47-1.1h0l-1.28-.95-.54-.4.66-.13a3.1,3.1,0,0,0,1.17-.49,4,4,0,0,0,1-1,4.85,4.85,0,0,0,.68-1.26,3.62,3.62,0,0,0,.21-1.3h0c0-.11,0-.24,0-.37h0l0-.21c0-.18-.11-.36-.15-.53h0l0-.06h0a1.14,1.14,0,0,0-.09-.26h0a1.28,1.28,0,0,0-.11-.2l-.21-.26h0l-.18-.22-.33-.39.51-.09.58-.1h0l.35-.06v-.21c-1,.18-1.93.36-2.85.55Zm-4.16,1v.22l1.06-.26.37-.09v9.61l.36-.09V261l.23-.05,1.22-.27v-.22l-.41.09h0l-.17,0-1,.23ZM82,266.28V263l.22-.06,2.61-.72,2.06-.55v-.21q-2.56.69-5.13,1.45-2.83.84-5.6,1.74v.2l2.36-.77c.88-.28,1.79-.57,2.76-.85l.39-.12V266c0,.31,0,.57,0,.83,0,.57,0,1.14,0,1.71h0a2,2,0,0,1-.24.76A4.62,4.62,0,0,1,81,270a3.45,3.45,0,0,1-.58.57,1.86,1.86,0,0,1-.66.33h0a2,2,0,0,1-.39.07H79a1.2,1.2,0,0,1-.9-.58,2.29,2.29,0,0,1-.27-1.2v-.37l0-.14a2.87,2.87,0,0,1,.08-.38h0a4.55,4.55,0,0,1,.38-.88,2.77,2.77,0,0,1,.55-.65h0c.11-.08.23-.17.35-.24h0a2.17,2.17,0,0,1,.44-.19l.07,0h.05l.15-.05h.34v-.21h-.16l-.16,0h0l-.28,0h0a2,2,0,0,0-.41.17,2.78,2.78,0,0,0-.44.29,3.37,3.37,0,0,0-.75.76,3.66,3.66,0,0,0-.49.94,3.05,3.05,0,0,0-.14.54,2.76,2.76,0,0,0,0,.59,2.63,2.63,0,0,0,0,.49,1.48,1.48,0,0,0,.14.42,1.4,1.4,0,0,0,.78.79,1.9,1.9,0,0,0,1.26-.05,2.73,2.73,0,0,0,.85-.43h0a2.8,2.8,0,0,0,.67-.7l.56.16v2.6l.33-.1v-4.11a3.07,3.07,0,0,1,.14-.92,4.27,4.27,0,0,1,.43-.94h0a4.13,4.13,0,0,1,.71-.92,2.15,2.15,0,0,1,.86-.49h0a2.16,2.16,0,0,1,.38-.08,1.2,1.2,0,0,1,.38,0h0a2.53,2.53,0,0,1,.33.12,1.18,1.18,0,0,1,.27.2h0a1.84,1.84,0,0,1,.4,1.29,3.45,3.45,0,0,1-.23,1.15,6.8,6.8,0,0,1-.64,1.31h0l-.24.41h0l-.32.53h0l-.07.1.21.12.35-.51.05-.07.37-.64h0a7.79,7.79,0,0,0,.68-1.41,3.59,3.59,0,0,0,.21-1.14,2.23,2.23,0,0,0-.14-.85,1.56,1.56,0,0,0-.42-.6,1.28,1.28,0,0,0-.63-.28h0a2.29,2.29,0,0,0-.88.07h0l-.2.05-.19.05-.16.11h0l-.18.14-.33.3h0l-.07.07-.14.18-.05.07h0l-.27.37-.07.08Zm.6-2.83v1.92l0,0,.1-.09c.11-.11.23-.22.34-.31h0a1.3,1.3,0,0,1,.23-.18h0l.24-.15.07,0,.22-.06h0l.2-.06h0a2.8,2.8,0,0,1,1.13-.09h0a1.85,1.85,0,0,1,.94.43h0a2.12,2.12,0,0,1,.58.83,2.74,2.74,0,0,1,.19,1.06,4.24,4.24,0,0,1-.25,1.33,8.63,8.63,0,0,1-.73,1.52l-.38.65v0l-.05.07c-.19.27-.37.54-.5.74l-.16.25-.25-.15-.79-.47-.51-.3.55-.23,0,0h0a.48.48,0,0,0,.11-.15h0l.31-.52h0l.24-.41h0a7.11,7.11,0,0,0,.6-1.21,3,3,0,0,0,.18-.95,1.26,1.26,0,0,0-.23-.88.48.48,0,0,0-.13-.09.76.76,0,0,0-.2-.08.32.32,0,0,0-.17,0,1,1,0,0,0-.27.05h0a1.4,1.4,0,0,0-.61.36,3.31,3.31,0,0,0-.59.77h0a4,4,0,0,0-.37.83,2.54,2.54,0,0,0-.12.74v4.55l-.21.06-.94.28-.39.12v-2.6a2.75,2.75,0,0,1-.26.22h0a3.44,3.44,0,0,1-1,.52,2.54,2.54,0,0,1-1.65,0A2,2,0,0,1,77,270.6a1.9,1.9,0,0,1-.18-.57,2.88,2.88,0,0,1-.06-.59,3.85,3.85,0,0,1,.06-.69,3.35,3.35,0,0,1,.17-.64,4.81,4.81,0,0,1,.56-1.08,4.12,4.12,0,0,1,.88-.89h0a3.08,3.08,0,0,1,.52-.34h0a2.19,2.19,0,0,1,.54-.22h0l.34-.07.18,0h.84v1.47h-.5l-.12,0,0,0h0l-.08,0h0l-.11,0h0l-.07,0h0a2.08,2.08,0,0,0-.3.13,1.85,1.85,0,0,0-.27.19h0a1.89,1.89,0,0,0-.42.49,3.76,3.76,0,0,0-.32.75h0a2.82,2.82,0,0,0-.07.31h0l0,.11v.3a1.7,1.7,0,0,0,.19.9.62.62,0,0,0,.46.29h.24a1.66,1.66,0,0,0,.28-.05h0a1.33,1.33,0,0,0,.46-.23,2.94,2.94,0,0,0,.46-.47,2.57,2.57,0,0,0,.39-.58h0a1.3,1.3,0,0,0,.16-.52c0-.56,0-1.11,0-1.66h0c0-.29,0-.59,0-.84v-2.12l-2.36.74-2.75.89-.4.13v-1.45l.21-.07c2-.64,3.92-1.25,5.83-1.81q2.64-.78,5.3-1.49h0l.23-.06h0l-1.06-.52-1.78-.86-.31-.14.18-.28.61-.9h0l.08-.13.18-.27.26.2L87,259.2l1.55,1.24.51-.12-2.81-3.45-.18-.22.21-.18.41-.37h0l.41-.37.27-.24.19.3c.25.39.51.79.78,1.19l.66,1h0c.22.34.47.72.73,1.1h0l.61.93.76-.17h0l.23,0h.1l.22,0,.37-.08h0l2.64-.54,3-.57h0l.25,0,.31-.05.16,0h0l1.76-.3h0l1.56-.24h0l.25,0,.43-.07.35-.05h0c1.58-.22,3.16-.42,4.75-.61q2.73-.33,5.51-.59l.34,0v1.43l-.28,0-1.23.11v9.61l-.27,0-.54.05-.4,0-.33,0v-6h0l-.26.16-.25.17-.45.46-.27.4-.2.37h0l-.07.12c-.06.15-.14.32-.21.48l0,.11-.08.24-.07.23-.1.35-.33-.18-.76-.42-.16-.09v-.41l0-.11.14-.32v0l.17-.32h0l.16-.29.06-.17a.67.67,0,0,0-.15-.14,1.34,1.34,0,0,0-.43-.23l-.41-.13h0l-.16-.06h-.14a1.74,1.74,0,0,0-.32,0,1.23,1.23,0,0,0-.62.23,1.89,1.89,0,0,0-.53.64h0a2.27,2.27,0,0,0-.21.52h0a2,2,0,0,0-.07.54,2.13,2.13,0,0,0,.34,1.2,3.14,3.14,0,0,0,1.06,1l.6.35.92.36.31.12-.15.29-.23.44h0l-.22.45-.07.14-.16,0a2,2,0,0,1-1.27-.34,7.23,7.23,0,0,1-1.44-1.19,4.29,4.29,0,0,1-.53-.61,2.73,2.73,0,0,1-.36-.7,4.43,4.43,0,0,1-.22-.77,3.54,3.54,0,0,1-.08-.7,4.77,4.77,0,0,1,.06-.67,3.74,3.74,0,0,1,.17-.62,3.35,3.35,0,0,1,.6-1,3.42,3.42,0,0,1,1-.76l.25-.12.28-.1.3-.1h0l.31-.05a2.53,2.53,0,0,1,.54,0c.16,0,.31,0,.44.06h0a3.65,3.65,0,0,1,.5.15h0a1.81,1.81,0,0,1,.47.26l.24.18.25.18,0,0,.07-.06,0,0,.33-.29h0l.26-.22,0,0,.4-.2,0,0,.48-.2.08,0h.14v-2.07c-1.32.14-2.64.3-4,.47s-2.83.37-4.28.57l-.27,0-.81.13V269l-.26,0h-.09l-.86.14-.36.06v-9.61l-1.39.25-.35.06v0l-.24,0h0l-.08,0,.09.1h0a1.5,1.5,0,0,1,.19.32,2.13,2.13,0,0,1,.11.33h0l0,.06h0c0,.18.1.36.16.53v.07l0,.23h0c0,.15,0,.29,0,.45a4.5,4.5,0,0,1-.25,1.5,5.65,5.65,0,0,1-.75,1.41h0a4.52,4.52,0,0,1-1.14,1.13,3.49,3.49,0,0,1-.79.41l.8.6h0l1.71,1.28.24.18-.18.23-.63.81-.18.23-.24-.17-2.18-1.63h0l-2.16-1.61-.24-.17.17-.24.32-.42h0l.32-.43.18-.24.24.18.17.13h0l.36.26.29-.07h0l.19,0,.12-.05h0l.3-.14a1.15,1.15,0,0,0,.25-.12,1.24,1.24,0,0,0,.22-.18l.41-.38.16-.14c.1-.15.22-.3.33-.44l.08-.1.12-.27h0l.13-.26v-.08a1.57,1.57,0,0,1-.19.18,1.6,1.6,0,0,1-.37.25l-.31.14h0a1.7,1.7,0,0,1-.32.1,1.56,1.56,0,0,1-.52.05,3,3,0,0,1-.45-.07,1.85,1.85,0,0,1-.8-.38,2,2,0,0,1-.54-.71h0a2,2,0,0,1-.17-.92h0a2.2,2.2,0,0,1,.14-.76,2.6,2.6,0,0,1,.1-.25l-.87.18v0l-.23.05-1.54.35v9.61l-.24.05-.68.16h0l-.27.07-.37.09v-9.61l-1.26.31c-.8.2-1.6.42-2.39.63h0Z"/><path class="cls-3" d="M727.84,0V34.06h-3.25q-3-11.79-6.62-16.93a25.11,25.11,0,0,0-10-8.22c-2.35-1.11-6.49-1.68-12.41-1.68H686v97.42q0,9.75,1.06,12.18a9.57,9.57,0,0,0,4.13,4.25c2.07,1.24,4.88,1.84,8.44,1.84h4.14v3.23h-65.9v-3.23H642a17.27,17.27,0,0,0,8.78-2,9,9,0,0,0,3.79-4.5c.67-1.49,1-5.42,1-11.8V7.23h-9.17C638,7.23,631.85,9,628,12.62q-8.07,7.51-10.19,21.44h-3.63V0Zm-196,7.23V58.61h2.51q12.09,0,17.51-7.52c3.6-5,5.93-12.4,6.91-22.17h3.63V95h-3.63c-.73-7.2-2.32-13.1-4.71-17.66s-5.19-7.68-8.37-9.26-7.8-2.38-13.85-2.38V101.1c0,7,.29,11.17.89,12.72a7.47,7.47,0,0,0,3.31,3.8q2.44,1.48,7.83,1.49h7.58q17.71,0,28.43-8.15T595.24,86.1h3.47L593,126.15H483.71v-3.23h4.17a17.5,17.5,0,0,0,8.85-2,8.46,8.46,0,0,0,3.73-4.5c.67-1.49,1-5.42,1-11.8V21.5c0-5.74-.16-9.26-.48-10.59a8.73,8.73,0,0,0-3.44-5c-2.36-1.75-5.57-2.63-9.68-2.63h-4.17V0H589.54V37.3h-3.63c-1.78-9.14-4.33-15.67-7.58-19.64s-7.83-6.88-13.78-8.75Q559.35,7.24,545,7.23ZM475.28,122.92v3.23H409.37v-3.23h4.17a17.5,17.5,0,0,0,8.85-2,8.46,8.46,0,0,0,3.73-4.5c.67-1.49,1-5.42,1-11.8V21.5c0-6.5-.35-10.56-1-12.18A9.42,9.42,0,0,0,422,5.08c-2.07-1.24-4.87-1.84-8.44-1.84h-4.17V0h65.91V3.24H471.1a17.3,17.3,0,0,0-8.78,2,9,9,0,0,0-3.79,4.51c-.67,1.49-1,5.42-1,11.79v83.15q0,9.75,1.05,12.18a9.63,9.63,0,0,0,4.17,4.25,16.26,16.26,0,0,0,8.37,1.84ZM315.07,0l62.37,78.14V24c0-7.65-1.08-12.78-3.28-15.48-3-3.65-8-5.39-15.06-5.26V0h41.84V3.24q-8,1-10.8,2.66a11.13,11.13,0,0,0-4.3,5.36c-1,2.47-1.52,6.72-1.52,12.72V129h-3.16L295.68,23.85v80.42q0,11,5,14.81a18.36,18.36,0,0,0,11.49,3.84h3v3.23H270.08v-3.23c7-.06,11.85-1.49,14.62-4.31s4.1-7.58,4.1-14.34V15.06l-2.64-3.26q-4-5.15-7.1-6.76c-2-1.07-5-1.68-8.85-1.8V0Z"/><path class="cls-3" d="M712.76,190.65V179.3a21.61,21.61,0,0,0-6.6,5.54,6.77,6.77,0,0,0-1.42,4,4.11,4.11,0,0,0,1.21,2.94,3.31,3.31,0,0,0,2.56,1q1.83,0,4.25-2.09m0,2.68q-6.27,5.52-11.24,5.53a6.66,6.66,0,0,1-4.88-1.92,6.45,6.45,0,0,1-1.94-4.79,9.37,9.37,0,0,1,3.37-7q3.38-3.12,14.69-8.29v-3.42a16,16,0,0,0-.43-4.85,3.86,3.86,0,0,0-1.6-1.74,4.8,4.8,0,0,0-2.64-.74,6.78,6.78,0,0,0-3.94,1.05,1.86,1.86,0,0,0-.94,1.53,3.13,3.13,0,0,0,1,1.89,4.72,4.72,0,0,1,1.39,3,4,4,0,0,1-1.34,3,4.91,4.91,0,0,1-3.48,1.26,5.59,5.59,0,0,1-3.86-1.38,4.23,4.23,0,0,1-1.56-3.24,7.57,7.57,0,0,1,2.08-5,13.48,13.48,0,0,1,5.82-3.66,24.19,24.19,0,0,1,7.77-1.26,12.88,12.88,0,0,1,7.7,2,9.53,9.53,0,0,1,3.68,4.45,28.8,28.8,0,0,1,.51,7v13.2a13.54,13.54,0,0,0,.19,2.92,1.82,1.82,0,0,0,.55.9,1.41,1.41,0,0,0,.84.28,2.67,2.67,0,0,0,2-1.3l1.1.84a13,13,0,0,1-3.8,3.93,8.13,8.13,0,0,1-4.44,1.24,7,7,0,0,1-4.58-1.37A6.25,6.25,0,0,1,712.76,193.33Zm-37.62-21.26c-1.79-3.44-4-5.15-6.57-5.15a3.31,3.31,0,0,0-2.22.72,8.3,8.3,0,0,0-2.2,4,32.87,32.87,0,0,0-.85,8.68,34.7,34.7,0,0,0,1,9.52,9.11,9.11,0,0,0,2.57,4.47,3.5,3.5,0,0,0,2.29.7q3.2,0,6-5Zm10.26-23.14v39.26a25.68,25.68,0,0,0,.22,4.66,2.94,2.94,0,0,0,1.12,1.78,6,6,0,0,0,2.86.72v1.27l-14.46,2.76V194a17.93,17.93,0,0,1-4.61,4.27,9.24,9.24,0,0,1-4.57,1.13,11.72,11.72,0,0,1-10.31-5.82A20.92,20.92,0,0,1,652.59,182a24.41,24.41,0,0,1,1.89-9.83,14.73,14.73,0,0,1,5.2-6.57,12.44,12.44,0,0,1,7.08-2.21,9.57,9.57,0,0,1,4.33.94,14.62,14.62,0,0,1,4,3.31V157.21a18.55,18.55,0,0,0-.33-4.66,3.19,3.19,0,0,0-1.32-1.54,7.31,7.31,0,0,0-3.3-.51v-1.57ZM644.73,164.3v27c0,2.42.29,4,.85,4.66a4.73,4.73,0,0,0,3.35,1.16v1.27H630.28v-1.27a4.59,4.59,0,0,0,3.44-1.33c.5-.56.75-2.07.75-4.49V171.39c0-2.43-.29-4-.86-4.66a4.71,4.71,0,0,0-3.33-1.16V164.3Zm-5.14-16.49a5.65,5.65,0,0,1,5.67,5.65,5.37,5.37,0,0,1-1.66,4,5.53,5.53,0,0,1-4,1.64,5.47,5.47,0,0,1-4-1.64,5.65,5.65,0,0,1,4-9.63Zm-29.36,18.06a4.23,4.23,0,0,0-3.18,1.41q-1.34,1.4-1.75,5.52c-.29,2.76-.42,6.58-.42,11.48a49.17,49.17,0,0,0,.51,7.29,7.05,7.05,0,0,0,1.71,3.93,4.24,4.24,0,0,0,5.72.43,6.18,6.18,0,0,0,1.9-3.45q.72-3.47.72-14c0-4.12-.22-7-.69-8.5a6.52,6.52,0,0,0-2-3.37A3.81,3.81,0,0,0,610.23,165.87Zm-.16-2.53a15.84,15.84,0,0,1,8.28,2.28,14.77,14.77,0,0,1,5.82,6.52,21.41,21.41,0,0,1,2,9.23,19.47,19.47,0,0,1-3.68,12.11,14.56,14.56,0,0,1-12.29,5.9q-7.7,0-11.86-5.39a19.83,19.83,0,0,1-4.16-12.47,20.12,20.12,0,0,1,4.25-12.75A14,14,0,0,1,610.07,163.34Zm-54.16-14.41,24.46,30.65V158.34q0-4.5-1.29-6.07c-1.17-1.43-3.15-2.12-5.9-2.07v-1.27h16.4v1.27a12.43,12.43,0,0,0-4.23,1.05,4.38,4.38,0,0,0-1.69,2.1,14.48,14.48,0,0,0-.6,5v41.19h-1.23L548.3,158.29v31.54c0,2.86.65,4.8,2,5.8a7.21,7.21,0,0,0,4.51,1.51H556v1.27H538.27v-1.27c2.74,0,4.64-.59,5.73-1.69s1.61-3,1.61-5.62v-35l-1-1.28a9.54,9.54,0,0,0-2.78-2.65,8.24,8.24,0,0,0-3.47-.71v-1.27ZM503.38,164.3l0,7.77q3.38-5.28,5.93-7a8.78,8.78,0,0,1,4.91-1.72,4.39,4.39,0,0,1,3.27,1.25,4.89,4.89,0,0,1,1.22,3.55,5.56,5.56,0,0,1-1.19,3.78,3.66,3.66,0,0,1-2.86,1.34,4.9,4.9,0,0,1-3.33-1.23,18,18,0,0,0-1.67-1.38,1.6,1.6,0,0,0-.84-.23,3,3,0,0,0-2,.8,7.7,7.7,0,0,0-2.26,3.54,25,25,0,0,0-1.16,7.8l0,7.82v2.06a8.47,8.47,0,0,0,.26,2.68,2.85,2.85,0,0,0,1.3,1.45,7.69,7.69,0,0,0,2.93.57v1.27H489.37v-1.27a4.17,4.17,0,0,0,3-1.22q.78-1,.78-5.5V171.54a14.27,14.27,0,0,0-.3-3.78,2.84,2.84,0,0,0-1.06-1.51,5.52,5.52,0,0,0-2.46-.68V164.3ZM476,177.74a33.92,33.92,0,0,0-.63-8.05,6.66,6.66,0,0,0-2-3.31,3.1,3.1,0,0,0-2.06-.66,3.61,3.61,0,0,0-3.11,1.86c-1.43,2.16-2.16,5.12-2.16,8.89v1.27Zm9,2.38H466.16q.34,6.78,3.63,10.71a7.68,7.68,0,0,0,6.09,3,7,7,0,0,0,4-1.22,15.34,15.34,0,0,0,3.85-4.38l1.25.82c-1.85,3.74-3.91,6.4-6.15,8a13.38,13.38,0,0,1-7.8,2.34c-5.07,0-8.92-1.94-11.52-5.82a20.41,20.41,0,0,1-3.15-11.64q0-8.52,4.63-13.55a14.29,14.29,0,0,1,10.85-5,11.79,11.79,0,0,1,9,4.22Q484.66,171.8,485,180.12Zm-40.38-28.35V164.3h8.09v3.59h-8.09v21.05a15.72,15.72,0,0,0,.27,3.82,2.72,2.72,0,0,0,1,1.38,2.15,2.15,0,0,0,1.28.54q2.37,0,4.48-3.59l1.1.8q-3,7-9.62,7a8.45,8.45,0,0,1-5.5-1.81,8.06,8.06,0,0,1-2.88-4,35.82,35.82,0,0,1-.36-6.71V167.89h-4.49v-1.28a48,48,0,0,0,7.88-6.83,42.14,42.14,0,0,0,5.67-8Zm-32.14,38.88V179.3a21.61,21.61,0,0,0-6.6,5.54,6.77,6.77,0,0,0-1.42,4,4.11,4.11,0,0,0,1.21,2.94,3.31,3.31,0,0,0,2.56,1Q410,192.74,412.45,190.65Zm0,2.68c-4.17,3.68-7.93,5.53-11.24,5.53a6.66,6.66,0,0,1-4.88-1.92,6.45,6.45,0,0,1-1.94-4.79,9.37,9.37,0,0,1,3.37-7q3.38-3.12,14.69-8.29v-3.42a16,16,0,0,0-.43-4.85,3.86,3.86,0,0,0-1.6-1.74,4.8,4.8,0,0,0-2.64-.74,6.78,6.78,0,0,0-3.94,1.05,1.88,1.88,0,0,0-.95,1.53,3.16,3.16,0,0,0,1,1.89,4.7,4.7,0,0,1,1.38,3,4,4,0,0,1-1.33,3,4.92,4.92,0,0,1-3.49,1.26,5.58,5.58,0,0,1-3.85-1.38,4.23,4.23,0,0,1-1.56-3.24,7.57,7.57,0,0,1,2.08-5A13.42,13.42,0,0,1,403,164.6a24.19,24.19,0,0,1,7.77-1.26,12.88,12.88,0,0,1,7.7,2,9.53,9.53,0,0,1,3.68,4.45,28.61,28.61,0,0,1,.52,7v13.2a13.8,13.8,0,0,0,.18,2.92,1.82,1.82,0,0,0,.55.9,1.41,1.41,0,0,0,.84.28,2.67,2.67,0,0,0,2-1.3l1.1.84a12.91,12.91,0,0,1-3.8,3.93,8.13,8.13,0,0,1-4.44,1.24,7,7,0,0,1-4.58-1.37A6.25,6.25,0,0,1,412.45,193.33Zm-32.13-15.59a33.23,33.23,0,0,0-.64-8.05,6.65,6.65,0,0,0-2-3.31,3.1,3.1,0,0,0-2.06-.66,3.6,3.6,0,0,0-3.11,1.86q-2.16,3.24-2.16,8.89v1.27Zm9,2.38h-18.8q.33,6.78,3.63,10.71a7.68,7.68,0,0,0,6.08,3,7,7,0,0,0,4-1.22,15.34,15.34,0,0,0,3.84-4.38l1.25.82c-1.85,3.74-3.91,6.4-6.14,8a13.43,13.43,0,0,1-7.81,2.34q-7.61,0-11.52-5.82a20.41,20.41,0,0,1-3.15-11.64q0-8.52,4.64-13.55a14.27,14.27,0,0,1,10.84-5,11.79,11.79,0,0,1,9,4.22Q389,171.8,389.31,180.12ZM342.59,164.3l0,7.77c2.24-3.52,4.23-5.86,5.93-7a8.78,8.78,0,0,1,4.9-1.72,4.42,4.42,0,0,1,3.28,1.25,4.89,4.89,0,0,1,1.22,3.55,5.56,5.56,0,0,1-1.19,3.78,3.66,3.66,0,0,1-2.86,1.34,4.88,4.88,0,0,1-3.33-1.23,18,18,0,0,0-1.67-1.38,1.6,1.6,0,0,0-.84-.23,3,3,0,0,0-2,.8,7.62,7.62,0,0,0-2.26,3.54,25,25,0,0,0-1.16,7.8l0,7.82v2.06a8.17,8.17,0,0,0,.26,2.68,2.85,2.85,0,0,0,1.3,1.45,7.69,7.69,0,0,0,2.93.57v1.27H328.58v-1.27a4.17,4.17,0,0,0,3-1.22q.78-1,.78-5.5V171.54a14.27,14.27,0,0,0-.3-3.78,2.89,2.89,0,0,0-1.06-1.51,5.52,5.52,0,0,0-2.46-.68V164.3ZM319.3,147.81V165.2H318a21.94,21.94,0,0,0-7.37-10.78,17.48,17.48,0,0,0-10.73-3.7,13.93,13.93,0,0,0-9.28,3.11,16.92,16.92,0,0,0-5.25,8.68,43,43,0,0,0-1.53,11.43,41.65,41.65,0,0,0,1.67,12.45,14.23,14.23,0,0,0,5.43,7.86,15.55,15.55,0,0,0,8.89,2.52,17.9,17.9,0,0,0,3.67-.39,24.52,24.52,0,0,0,3.86-1.11V185.05a11.53,11.53,0,0,0-.4-3.84,3.68,3.68,0,0,0-1.66-1.57,6.09,6.09,0,0,0-3-.71H301v-1.27h24.13v1.27a10.38,10.38,0,0,0-3.85.76,3.83,3.83,0,0,0-1.66,1.92,10.34,10.34,0,0,0-.34,3.44v10.22a49.13,49.13,0,0,1-9.88,3.19,52.46,52.46,0,0,1-10.67,1.07A31,31,0,0,1,287,197.61a29.33,29.33,0,0,1-8.23-5,23.89,23.89,0,0,1-5.57-7,24.34,24.34,0,0,1-2.56-11.24,25.31,25.31,0,0,1,7.87-18.83q7.89-7.69,19.81-7.69a34.59,34.59,0,0,1,6.67.58,33.58,33.58,0,0,1,5.22,1.65,21.11,21.11,0,0,0,4.26,1.35,2.88,2.88,0,0,0,1.91-.74,6.61,6.61,0,0,0,1.61-2.84Z"/><polygon class="cls-6" points="727.77 285.49 563.23 293.95 573.47 229.47 741.14 220.21 727.77 285.49"/><polygon class="cls-6" points="557.79 294.62 269.99 309.59 284.64 244.73 569.37 229.61 557.79 294.62"/><polygon class="cls-7" points="246.82 290.62 258.36 277.86 258.53 277.67 251.84 265.74 277.95 273.15 276.42 280.17 246.82 290.62"/><polygon class="cls-8" points="276.42 280.17 277.95 273.15 288.13 276.04 287.94 276.1 276.42 280.17"/><polygon class="cls-9" points="289.08 269.03 243.23 256.02 251.69 271.1 251.46 271.34 288.85 269.12 289.08 269.03"/><polygon class="cls-10" points="288.85 269.12 251.46 271.34 236.88 287.46 288.85 269.12"/><path class="cls-11" d="M548.87,249.86l-13.4.64-2.29,12L544,262l-1.13,5.94-10.82.52L529.63,281l13.4-.64-1.13,5.93-20.8,1,8.11-42.41,20.79-1Zm-43.27,2.07-2.41,12.61,3-.15a6.51,6.51,0,0,0,4.16-1.46,6.89,6.89,0,0,0,2-4l.42-2.18c.34-1.77.17-3.07-.5-3.87s-1.9-1.17-3.67-1.09Zm2.31,36-2.43-17.65-3.42.16-3.43,17.94-7.4.35,8.11-42.41,10.68-.51q6-.28,8.61,2.32c1.75,1.74,2.28,4.34,1.62,7.81l-.58,3a12.76,12.76,0,0,1-7,9.59l3.08,19Zm-22.4-8.35a12.17,12.17,0,0,1-4.47,7.66,15.42,15.42,0,0,1-9,3c-3.53.17-6.15-.56-7.84-2.21s-2.22-4.09-1.6-7.36l6.29-32.9,7.12-.34-6.25,32.71q-.81,4.24,3.37,4.05c2.8-.14,4.46-1.62,5-4.45l6.26-32.71,7.39-.36Zm-22.08-25.54-7.89.38-7,36.36-7.39.35,6.95-36.35-7.89.37,1.16-6.05L464.59,248ZM430.8,282.23a12.17,12.17,0,0,1-4.47,7.66,15.45,15.45,0,0,1-9,3c-3.53.17-6.15-.56-7.84-2.2s-2.22-4.1-1.6-7.37l6.29-32.9,7.12-.34-6.25,32.72c-.55,2.82.58,4.17,3.37,4a4.92,4.92,0,0,0,5-4.44l6.25-32.72,7.4-.36Zm-22.2-25.65-13.05.63-2.29,12,10.46-.5-1.13,5.94-10.47.5-3.54,18.54-7.4.36,8.11-42.42,20.45-1Zm-37.43,1.92-7.88.37-7,36.36-7.4.35,6.95-36.35-7.89.37,1.16-6.05,23.17-1.11ZM345,259.63l-13.4.64-2.3,12,10.82-.52L339,277.69l-10.82.52-2.41,12.6,13.4-.64L338,296.11l-20.79,1,8.11-42.41,20.79-1ZM306.78,255q5.5-.27,8.07,2.25c1.71,1.68,2.25,4.14,1.64,7.37l-.56,2.91-7.18.64.49-2.55c.63-3.27-.5-4.83-3.39-4.7a5.44,5.44,0,0,0-3.45,1.25,5.6,5.6,0,0,0-1.7,3.26l-4.42,23.15c-.55,2.87.6,4.23,3.43,4.1a5.13,5.13,0,0,0,3.44-1.34,7,7,0,0,0,1.76-3.78l1.39-7.27-4.19.2,1.14-5.93,11.44-.55L312,287.86a12.27,12.27,0,0,1-4.51,7.66,15.51,15.51,0,0,1-9.09,3.08c-3.68.18-6.34-.58-8-2.26s-2.18-4.13-1.56-7.37l4.45-23.26a12.43,12.43,0,0,1,4.43-7.66A15.22,15.22,0,0,1,306.78,255Z"/><path class="cls-12" d="M377.9,254.39l-7.89.37-6.95,36.36-7.39.35,6.95-36.35-7.89.38,1.16-6.06,23.17-1.11Zm-26.22,1.13-13.4.64-2.29,12,10.82-.52-1.14,5.94-10.82.52-2.4,12.6,13.39-.64L344.71,292l-20.8,1L332,250.58l20.8-1Zm-38.18-4.65q5.52-.27,8.08,2.25t1.63,7.37l-.55,2.91-7.18.64.49-2.54c.62-3.28-.51-4.84-3.39-4.7a5.41,5.41,0,0,0-3.46,1.24,5.6,5.6,0,0,0-1.69,3.26L303,284.45c-.54,2.87.6,4.23,3.44,4.1a5.09,5.09,0,0,0,3.43-1.34,6.89,6.89,0,0,0,1.76-3.78l1.39-7.27-4.18.21,1.13-5.94,11.45-.55-2.66,13.87a12.26,12.26,0,0,1-4.5,7.66,15.47,15.47,0,0,1-9.1,3.08q-5.51.27-8-2.26c-1.66-1.68-2.18-4.13-1.57-7.37L300,261.6a12.44,12.44,0,0,1,4.44-7.66A15.19,15.19,0,0,1,313.5,250.87Z"/><path class="cls-13" d="M555.66,245.72l-13.4.65-2.3,12,10.82-.51-1.13,5.93-10.82.52-2.41,12.6,13.4-.64-1.14,5.94-20.79,1,8.1-42.42,20.8-1Zm-43.27,2.08L510,260.4l3-.14a6.54,6.54,0,0,0,4.15-1.46,6.89,6.89,0,0,0,2-4l.42-2.18c.34-1.78.17-3.07-.51-3.88s-1.89-1.17-3.66-1.09Zm2.31,36-2.44-17.66-3.42.17-3.43,17.93-7.39.36,8.11-42.42,10.67-.51q6-.28,8.62,2.32c1.74,1.74,2.28,4.34,1.62,7.82l-.58,3a12.76,12.76,0,0,1-7,9.58l3.07,19Zm-22.4-8.35a12.24,12.24,0,0,1-4.47,7.65,15.38,15.38,0,0,1-9,3c-3.53.17-6.15-.56-7.84-2.2s-2.23-4.1-1.6-7.37l6.29-32.9,7.12-.34-6.26,32.72c-.54,2.83.59,4.17,3.38,4s4.46-1.62,5-4.44l6.25-32.72,7.4-.35Zm-22.09-25.54-7.88.38-6.95,36.35L448,287l6.95-36.35-7.88.38,1.16-6.06,23.16-1.11ZM437.59,278.1a12.24,12.24,0,0,1-4.47,7.65,15.45,15.45,0,0,1-9,3q-5.31.25-7.84-2.21c-1.69-1.64-2.23-4.1-1.6-7.37l6.29-32.9,7.12-.34-6.26,32.72c-.54,2.83.59,4.17,3.38,4s4.45-1.61,5-4.44l6.25-32.72,7.4-.35Zm-22.2-25.65-13.05.62-2.3,12,10.47-.5-1.13,5.93-10.47.5-3.55,18.54-7.39.36,8.1-42.41,20.45-1Z"/><path class="cls-14" d="M316.8,232l126.72-7.39a1.49,1.49,0,0,0,1.52-1.5,1.57,1.57,0,0,0-1.74-1.31l-126.71,7.38a1.51,1.51,0,0,0-1.52,1.51A1.57,1.57,0,0,0,316.8,232"/><path class="cls-14" d="M287.48,240.37l46.35-2.86a1.49,1.49,0,0,0,1.51-1.51,1.57,1.57,0,0,0-1.74-1.31l-46.35,2.86a1.49,1.49,0,0,0-1.51,1.51,1.58,1.58,0,0,0,1.74,1.31"/><polygon class="cls-14" points="344.6 218.64 337.6 222.15 330.61 225.66 331.79 219.5 332.97 213.34 338.78 215.99 344.6 218.64"/><polygon class="cls-14" points="646.52 296.38 641.52 298.88 636.53 301.39 637.37 296.99 638.21 292.58 642.37 294.48 646.52 296.38"/><polygon class="cls-14" points="555.4 297.02 552.78 298.34 550.15 299.66 550.59 297.35 551.04 295.03 553.22 296.03 555.4 297.02"/><polygon class="cls-1" points="562.37 209.17 558.41 211.16 554.46 213.14 555.13 209.66 555.79 206.17 559.08 207.67 562.37 209.17"/><polygon class="cls-1" points="256.18 238.87 250.4 241.77 244.63 244.67 245.6 239.58 246.58 234.49 251.38 236.68 256.18 238.87"/><polygon class="cls-14" points="538.17 216.54 534.07 218.6 529.96 220.66 530.65 217.04 531.34 213.42 534.76 214.98 538.17 216.54"/><polygon class="cls-1" points="359.44 221.16 356.39 222.69 353.35 224.22 353.86 221.53 354.37 218.85 356.91 220 359.44 221.16"/><path class="cls-11" d="M707.5,258.94l-3.57,18.64-7.2.35,3.58-18.7-5.67-22.11,7.61-.37,3.25,14.34h.13l8.58-14.9,7.47-.36ZM676.83,243.7l-5.69,29.73,2.85-.14a6.34,6.34,0,0,0,4-1.42,6.68,6.68,0,0,0,2-3.89l3.75-19.59c.33-1.73.16-3-.49-3.77s-1.85-1.14-3.57-1.06Zm4.22-5.93c3.9-.19,6.69.57,8.39,2.26s2.22,4.22,1.57,7.61l-3.9,20.4a12.73,12.73,0,0,1-4.54,7.91,16,16,0,0,1-9.41,3.11l-10.32.49,7.89-41.29ZM650.9,248l-6.25,17.54,6.05-.29.4-17.26Zm6.77,31.82-7.33.35.23-9.3-8,.38-3.36,9.45-7.2.34,16.11-41.68,9.18-.43Zm-22.35-34.11-13.05.62L620,258l10.53-.5-1.1,5.78-10.53.5L616.59,276l13-.62-1.1,5.77-20.24,1,7.89-41.29,20.24-1Zm-42.12,2L590.85,260l2.92-.15a6.33,6.33,0,0,0,4.05-1.42,6.7,6.7,0,0,0,1.95-3.89l.41-2.12c.33-1.73.16-3-.49-3.78s-1.85-1.13-3.57-1.05Zm2.25,35.07-2.37-17.18-3.33.15-3.34,17.46-7.2.35,7.89-41.29,10.4-.5c3.89-.18,6.69.57,8.38,2.26s2.22,4.23,1.58,7.61l-.57,3a12.41,12.41,0,0,1-6.83,9.33l3,18.5Z"/><path class="cls-15" d="M716.08,254.87,712.42,274l-7.4.35,3.68-19.21-5.83-22.71,7.82-.37L714,246.8h.14l8.8-15.31,7.68-.37Zm-31.51-15.66-5.84,30.54,2.94-.14a6.56,6.56,0,0,0,4.15-1.46,6.89,6.89,0,0,0,2-4L691.67,244c.34-1.77.17-3.07-.5-3.87s-1.9-1.17-3.67-1.09Zm4.35-6.09q6-.28,8.61,2.32t1.62,7.81l-4,21a13.09,13.09,0,0,1-4.66,8.12,16.49,16.49,0,0,1-9.67,3.19L670.2,276l8.11-42.41Zm-31,10.49-6.42,18,6.21-.3.42-17.73Zm7,32.68-7.54.36.24-9.55-8.17.39L646,277.2l-7.4.35,16.55-42.81,9.42-.45Zm-23-35-13.4.65-2.29,12,10.82-.52-1.14,5.94-10.81.52-2.41,12.6,13.39-.64L635,277.73l-20.8,1,8.11-42.41,20.8-1Zm-43.26,2.08-2.41,12.6,3-.14a6.6,6.6,0,0,0,4.15-1.46,6.92,6.92,0,0,0,2-4l.42-2.18c.33-1.78.17-3.07-.51-3.88s-1.89-1.17-3.66-1.09Zm2.3,36-2.43-17.66-3.42.17-3.43,17.93-7.39.36,8.1-42.42,10.68-.51q6-.28,8.62,2.32c1.74,1.74,2.28,4.34,1.61,7.82l-.58,3a12.73,12.73,0,0,1-7,9.58l3.07,19Z"/><path class="cls-7" d="M740.54,224.07l.72-4,5.81,1.65-.1,0ZM725,229.56l2-2.18,4.83-.22Z"/><polygon class="cls-8" points="726.95 227.38 731.15 222.74 731.24 222.63 727.66 216.25 741.26 220.11 740.54 224.07 731.78 227.16 726.95 227.38"/><polygon class="cls-9" points="749 217.47 729.59 211.96 733.17 218.34 733.07 218.44 748.9 217.5 749 217.47"/><polygon class="cls-10" points="748.9 217.5 733.07 218.44 726.9 225.27 748.9 217.5"/><polygon class="cls-7" points="561.47 273.99 563.16 264.48 577.16 268.45 577.05 268.49 561.47 273.99"/><polygon class="cls-8" points="553.19 276.91 559.88 269.51 559.99 269.4 556.1 262.48 563.16 264.48 561.47 273.99 553.19 276.91"/><polygon class="cls-9" points="579.25 263.79 558.19 257.81 562.08 264.74 561.97 264.85 579.14 263.83 579.25 263.79"/><polygon class="cls-10" points="579.14 263.83 561.97 264.85 555.28 272.25 579.14 263.83"/><polygon class="cls-7" points="718.69 289.81 722.64 285.44 722.76 285.31 718.34 277.43 742.31 284.23 742.19 284.27 727.78 289.36 718.69 289.81"/><polygon class="cls-8" points="715.02 293.86 718.69 289.81 727.78 289.36 715.02 293.86"/><polygon class="cls-9" points="743.24 281.07 716 273.34 721.02 282.3 720.89 282.44 743.1 281.12 743.24 281.07"/><polygon class="cls-10" points="743.1 281.12 720.89 282.44 712.23 292.01 743.1 281.12"/><polygon class="cls-7" points="467.26 234.14 473.21 227.57 473.39 227.38 466.73 215.53 502.78 225.75 502.6 225.82 480.93 233.47 467.26 234.14"/><polygon class="cls-8" points="461.75 240.24 467.26 234.14 480.93 233.47 461.75 240.24"/><polygon class="cls-9" points="504.18 221 463.21 209.38 470.77 222.84 470.57 223.07 503.97 221.08 504.18 221"/><polygon class="cls-10" points="503.97 221.08 470.57 223.07 457.54 237.46 503.97 221.08"/><path class="cls-3" d="M78.19,305.23h-9.9v10.86H79.37v1.47H66.53v-24.8H78.78v1.47H68.29v9.53h9.9Z"/><path class="cls-3" d="M82.93,315.24a7.84,7.84,0,0,0,4,1.21c2.79,0,4.12-1.5,4.12-3.34s-1.18-3-3.72-4c-2.9-1.11-4.49-2.69-4.49-4.82,0-2.58,2-4.79,5.45-4.79a6.87,6.87,0,0,1,3.9,1.11L91.51,302A6,6,0,0,0,88,301c-2.25,0-3.43,1.43-3.43,3,0,1.84,1.25,2.61,3.65,3.6,2.87,1.14,4.56,2.58,4.56,5.27,0,3-2.36,5-6,5a8.65,8.65,0,0,1-4.49-1.22Z"/><path class="cls-3" d="M99.82,296v3.9h5v1.43h-5v11.48c0,2.25.7,3.64,2.58,3.64a6.82,6.82,0,0,0,2-.25l.22,1.32a7,7,0,0,1-2.46.41,3.75,3.75,0,0,1-3-1.22,6.45,6.45,0,0,1-1.1-4.23V301.33h-3V299.9h3v-3.24Z"/><path class="cls-3" d="M122.63,291.4v22.07c0,1.29,0,2.84.15,4.09H121.2l-.15-3.35H121a6.7,6.7,0,0,1-6.3,3.75c-4.37,0-7.61-3.64-7.61-8.9,0-5.89,3.6-9.57,8-9.57a6.24,6.24,0,0,1,5.77,3.13h.08V291.4Zm-1.76,15.49a6.12,6.12,0,0,0-.19-1.62,5.65,5.65,0,0,0-5.55-4.3c-3.87,0-6.3,3.34-6.3,7.91,0,4,2,7.61,6.19,7.61a5.85,5.85,0,0,0,5.66-4.6,4.52,4.52,0,0,0,.19-1.47Z"/><path class="cls-3" d="M128.59,318a1.51,1.51,0,0,1-1.43-1.65,1.53,1.53,0,0,1,1.5-1.66,1.51,1.51,0,0,1,1.48,1.66,1.55,1.55,0,0,1-1.51,1.65Z"/><path class="cls-3" d="M133.26,317.56v-1.07l2.21-2.28c6.66-6.51,9.57-9.9,9.57-14,0-2.72-1.14-5.41-5.19-5.41a7.94,7.94,0,0,0-5.08,2.06l-.7-1.21a9,9,0,0,1,6.11-2.39,6.28,6.28,0,0,1,6.66,6.58c0,4.71-3.42,8.5-9.42,14.43L135.73,316v.08H147.5v1.47Z"/><path class="cls-3" d="M158.24,318c-3.75,0-7.21-3.68-7.32-12.25s3.83-12.47,7.84-12.47c4.19,0,7.32,3.79,7.32,12,0,8.57-3.09,12.69-7.8,12.69Zm.22-1.47c4,0,5.78-4.52,5.78-11,0-6.25-1.69-10.74-5.74-10.74-3.46,0-5.74,4.42-5.74,10.74-.11,6.66,2.17,11,5.67,11Z"/><path class="cls-3" d="M176.2,318c-3.76,0-7.21-3.68-7.33-12.25s3.83-12.47,7.84-12.47c4.2,0,7.32,3.79,7.32,12,0,8.57-3.09,12.69-7.8,12.69Zm.22-1.47c4,0,5.77-4.52,5.77-11,0-6.25-1.69-10.74-5.74-10.74-3.45,0-5.74,4.42-5.74,10.74-.11,6.66,2.18,11,5.67,11Z"/><path class="cls-3" d="M194.11,295.45H194l-3.9,2.28-.44-1.4,4.52-2.69h1.62v23.92h-1.73Z"/><rect class="cls-16" y="347.92" width="743" height="48"/><text class="cls-17" transform="translate(115.23 383.45)">AN AUTONOMOUS INSTITUTE</text></g></g></svg>